<?xml version="1.0" encoding="utf-8"?>
<!-- Generator: Adobe Illustrator 25.0.0, SVG Export Plug-In . SVG Version: 6.00 Build 0)  -->
<svg version="1.1" id="レイヤー_1" xmlns="http://www.w3.org/2000/svg" xmlns:xlink="http://www.w3.org/1999/xlink" x="0px"
	 y="0px" viewBox="0 0 585.45 82.5" style="enable-background:new 0 0 585.45 82.5;" xml:space="preserve">
<style type="text/css">
	.st0{fill:#0273D9;}
	.st1{fill:#333333;}
</style>
<g>
	<path class="st0" d="M0,0.66h19.87v6.6H7v12.87h10.23v6.6H7v13.53h12.87v6.6H0V0.66z"/>
	<path class="st0" d="M51.5,0.66l-7.66,46.21h-9.37L26.8,0.66h7.13l5.28,36.31L44.5,0.66H51.5z"/>
	<path class="st0" d="M60.21,0.66h19.87v6.6H67.21v12.87h10.23v6.6H67.21v13.53h12.87v6.6H60.21V0.66z"/>
	<path class="st0" d="M89.26,0.66h7.72l8.91,31.03V0.66h6.87v46.21h-7.39L96.12,17.3v29.58h-6.87V0.66z"/>
	<path class="st0" d="M140.22,0.66h7v46.21h-7V0.66z"/>
	<path class="st0" d="M158.18,0.66h7.72l8.91,31.03V0.66h6.87v46.21h-7.39l-9.24-29.58v29.58h-6.87V0.66z"/>
	<path class="st0" d="M192.64,0.66h19.54v6.6h-12.54V20.8h9.9v6.6h-9.9v19.48h-7V0.66z"/>
	<path class="st0" d="M223.41,44.46c-2.07-2.05-3.1-4.74-3.1-8.09V11.16c0-3.34,1.03-6.04,3.1-8.09c2.07-2.05,4.77-3.07,8.12-3.07
		c3.34,0,6.05,1.02,8.12,3.07c2.07,2.05,3.1,4.74,3.1,8.09v25.22c0,3.35-1.03,6.04-3.1,8.09c-2.07,2.05-4.78,3.07-8.12,3.07
		C228.18,47.53,225.47,46.51,223.41,44.46z M234.63,39.74c0.75-0.79,1.12-1.91,1.12-3.37V11.16c0-1.45-0.37-2.57-1.12-3.37
		c-0.75-0.79-1.78-1.19-3.1-1.19c-1.32,0-2.35,0.4-3.1,1.19c-0.75,0.79-1.12,1.91-1.12,3.37v25.22c0,1.45,0.37,2.57,1.12,3.37
		c0.75,0.79,1.78,1.19,3.1,1.19C232.85,40.93,233.88,40.54,234.63,39.74z"/>
	<path class="st0" d="M268.83,46.87l-5.08-19.08h-3.63v19.08h-7V0.66h10.96c3.34,0,6.01,1,7.99,3c1.98,2,2.97,4.68,2.97,8.02v5.08
		c0,2.11-0.42,3.98-1.25,5.61c-0.84,1.63-2.02,2.9-3.56,3.83l5.88,20.66H268.83z M260.11,21.19h3.63c1.36,0,2.42-0.37,3.17-1.12
		c0.75-0.75,1.12-1.8,1.12-3.17v-5.35c0-1.36-0.37-2.42-1.12-3.17c-0.75-0.75-1.81-1.12-3.17-1.12h-3.63V21.19z"/>
	<path class="st0" d="M316.95,0.66v46.21h-7V15.18l-6.54,31.69h-4.89L292,15.18v31.69h-6.87V0.66h9.9l6.07,29.51l5.81-29.51H316.95z
		"/>
	<path class="st0" d="M341.71,36.64h-7.53l-1.52,10.23h-7l7.66-46.21h9.37l7.66,46.21h-7.13L341.71,36.64z M340.79,29.91
		l-2.84-19.34l-2.84,19.34H340.79z"/>
	<path class="st0" d="M356.83,0.66h22.31v6.6h-7.66v39.61h-7V7.26h-7.66V0.66z"/>
	<path class="st0" d="M387.86,0.66h7v46.21h-7V0.66z"/>
	<path class="st0" d="M408.32,44.46c-2.07-2.05-3.1-4.74-3.1-8.09V11.16c0-3.34,1.03-6.04,3.1-8.09C410.39,1.02,413.1,0,416.44,0
		c3.34,0,6.05,1.02,8.12,3.07c2.07,2.05,3.1,4.74,3.1,8.09v25.22c0,3.35-1.03,6.04-3.1,8.09c-2.07,2.05-4.78,3.07-8.12,3.07
		C413.1,47.53,410.39,46.51,408.32,44.46z M419.54,39.74c0.75-0.79,1.12-1.91,1.12-3.37V11.16c0-1.45-0.37-2.57-1.12-3.37
		c-0.75-0.79-1.78-1.19-3.1-1.19c-1.32,0-2.35,0.4-3.1,1.19c-0.75,0.79-1.12,1.91-1.12,3.37v25.22c0,1.45,0.37,2.57,1.12,3.37
		c0.75,0.79,1.78,1.19,3.1,1.19C417.76,40.93,418.8,40.54,419.54,39.74z"/>
	<path class="st0" d="M438.03,0.66h7.72l8.91,31.03V0.66h6.87v46.21h-7.39L444.9,17.3v29.58h-6.87V0.66z"/>
	<path class="st0" d="M488.99,0.66h7v39.61h12.48v6.6h-19.48V0.66z"/>
	<path class="st0" d="M517.19,0.66h7v46.21h-7V0.66z"/>
	<path class="st0" d="M538.97,46.08c-1.72-0.97-3.05-2.31-3.99-4.03c-0.95-1.72-1.42-3.67-1.42-5.88v-1.65l6.73-0.73v1.72
		c0,1.67,0.4,2.99,1.19,3.96c0.79,0.97,1.89,1.45,3.3,1.45c1.36,0,2.45-0.4,3.27-1.19c0.81-0.79,1.22-1.87,1.22-3.24
		c0-1.5-0.43-2.93-1.29-4.29c-0.86-1.36-2.56-3.26-5.12-5.68c-3.43-3.26-5.78-5.96-7.03-8.12c-1.25-2.16-1.88-4.51-1.88-7.06
		c0-3.48,0.95-6.24,2.84-8.29c1.89-2.05,4.49-3.07,7.79-3.07c3.3,0,5.9,1.03,7.79,3.1c1.89,2.07,2.84,4.84,2.84,8.32v1.19
		l-6.73,0.73v-1.32c0-1.76-0.33-3.1-0.99-4.03s-1.61-1.39-2.84-1.39c-1.23,0-2.18,0.37-2.84,1.12c-0.66,0.75-0.99,1.85-0.99,3.3
		c0,1.45,0.44,2.85,1.32,4.19c0.88,1.34,2.58,3.27,5.08,5.78c3.43,3.43,5.78,6.2,7.03,8.29c1.25,2.09,1.88,4.39,1.88,6.9
		c0,2.2-0.47,4.16-1.42,5.88c-0.95,1.72-2.28,3.06-3.99,4.03c-1.72,0.97-3.67,1.45-5.88,1.45
		C542.64,47.53,540.69,47.05,538.97,46.08z"/>
	<path class="st0" d="M563.13,0.66h22.32v6.6h-7.66v39.61h-7V7.26h-7.66V0.66z"/>
</g>
<g>
	<g>
		<path class="st1" d="M226.64,72.49c1.63-1.01,3.3-2.47,4.37-3.74l1.32,1.26c-1.19,1.21-2.67,2.42-4.23,3.44v6.52
			c0,0.64,0.03,1.51,0.11,1.85h-1.95c0.05-0.35,0.09-1.21,0.09-1.85V74.5c-1.65,0.9-3.73,1.81-5.8,2.44l-0.77-1.56
			C222.54,74.64,224.9,73.57,226.64,72.49z"/>
		<path class="st1" d="M239.36,75.85c0.74-0.74,2.04-2.4,3.06-3.63c0.88-1.04,1.71-1.21,2.84-0.13c0.99,0.93,2.28,2.28,3.21,3.27
			c1.07,1.13,2.66,2.84,3.87,4.15l-1.37,1.45c-1.1-1.32-2.45-2.94-3.43-4.07c-0.91-1.05-2.34-2.59-2.97-3.21
			c-0.57-0.55-0.88-0.5-1.37,0.11c-0.69,0.85-1.92,2.5-2.61,3.36c-0.33,0.46-0.69,0.96-0.94,1.32l-1.49-1.52
			C238.61,76.59,238.92,76.29,239.36,75.85z M249.92,72.97l-1.13,0.5c-0.42-0.9-0.91-1.78-1.45-2.53l1.1-0.47
			C248.85,71.09,249.56,72.25,249.92,72.97z M252.03,72.11l-1.12,0.53c-0.44-0.9-0.94-1.76-1.51-2.48l1.1-0.5
			C250.93,70.24,251.67,71.39,252.03,72.11z"/>
		<path class="st1" d="M264.54,77.85c2.53-1.56,4.5-3.91,5.45-5.92l0.96,1.71c-1.13,2.04-3.06,4.18-5.52,5.69
			c-1.59,0.97-3.58,1.9-6.02,2.34l-1.05-1.62C260.99,79.65,263.03,78.77,264.54,77.85z M264.01,72.82l-1.24,1.27
			c-0.82-0.83-2.77-2.55-3.93-3.33l1.15-1.23C261.08,70.27,263.13,71.9,264.01,72.82z"/>
		<path class="st1" d="M280.32,70.71c0-0.5-0.05-1.23-0.14-1.76h1.93c-0.05,0.52-0.11,1.21-0.11,1.76v2.45
			c2.09,0.63,5.08,1.74,6.65,2.51l-0.71,1.71c-1.65-0.9-4.21-1.89-5.94-2.45v4.86c0,0.49,0.05,1.45,0.13,2.01h-1.93
			c0.08-0.55,0.13-1.4,0.13-2.01V70.71z"/>
		<path class="st1" d="M294.5,75.14c0.33-1.07,0.58-2.81,0.68-4.04l1.05,0.13c-0.05,1.24-0.3,3.08-0.63,4.26L294.5,75.14z
			 M298.59,72.96c-0.16-0.55-0.49-1.48-0.8-2.2v11.71h-1.34v-14.4h1.34v2.56l0.91-0.36c0.31,0.71,0.72,1.63,0.88,2.22L298.59,72.96z
			 M309.07,73.05v1.08h-10.18v-1.08h4.31v-0.91h-3.46v-1.02h3.46V70.3h-3.83v-1.08h3.83v-1.16h1.45v1.16h3.98v1.08h-3.98v0.82h3.57
			v1.02h-3.57v0.91H309.07z M307.92,80.97c0,0.66-0.14,1.04-0.61,1.24c-0.49,0.2-1.23,0.22-2.31,0.22
			c-0.06-0.36-0.25-0.91-0.42-1.26c0.72,0.05,1.48,0.03,1.68,0.03c0.22-0.02,0.28-0.08,0.28-0.27v-0.85h-5.2v2.37h-1.35v-7.56h7.94
			V80.97z M301.34,76.01v0.97h5.2v-0.97H301.34z M306.54,79.04v-0.97h-5.2v0.97H306.54z"/>
		<path class="st1" d="M317.81,72.16h2.75v1.24h-1.46l0.68,0.17c-0.27,0.66-0.55,1.35-0.8,1.85h1.4v1.26h-2.56v1.48h2.36v1.24h-2.36
			v3.03h-1.37V79.4h-2.47v-1.24h2.47v-1.48h-2.61v-1.26h1.37c-0.08-0.53-0.31-1.27-0.6-1.85l0.64-0.17h-1.68v-1.24h2.88v-1.37h-2.31
			v-1.23h2.31v-1.48h1.37v1.48h2.17v1.23h-2.17V72.16z M317.84,75.28c0.22-0.53,0.5-1.32,0.66-1.89h-2.72
			c0.28,0.61,0.55,1.38,0.61,1.89l-0.52,0.14h2.5L317.84,75.28z M327.6,74.32c-0.31,1.87-0.91,3.63-1.78,5.12
			c0.68,0.79,1.46,1.43,2.34,1.87c-0.31,0.27-0.75,0.8-0.97,1.16c-0.8-0.47-1.52-1.1-2.17-1.85c-0.55,0.72-1.19,1.35-1.92,1.87
			c-0.19-0.27-0.5-0.61-0.8-0.85v0.83h-1.32V68.75h6.26v2.97c0,0.68-0.14,1.05-0.69,1.26c-0.52,0.2-1.32,0.2-2.5,0.2
			c-0.06-0.38-0.25-0.91-0.44-1.26c0.9,0.03,1.73,0.03,1.96,0.02s0.3-0.06,0.3-0.24v-1.67h-3.57v4.02h4.17l0.24-0.06L327.6,74.32z
			 M322.31,81.38c0.72-0.5,1.34-1.15,1.87-1.89c-0.8-1.24-1.41-2.69-1.87-4.24V81.38z M323.53,75.25c0.35,1.07,0.82,2.09,1.4,3.02
			c0.5-0.94,0.86-1.96,1.12-3.02H323.53z"/>
		<path class="st1" d="M346.81,74.31v1.6h-14.3v-1.6H346.81z"/>
		<path class="st1" d="M363.71,81.16c0.55,0,0.64-0.17,0.71-1.37c0.3,0.17,0.85,0.38,1.24,0.46c-0.14,1.67-0.55,2.06-1.81,2.06
			h-2.47c-1.65,0-2.06-0.33-2.06-1.56v-0.97h-2.06c-0.5,1.59-1.78,2.36-5.31,2.72c-0.08-0.31-0.39-0.85-0.63-1.12
			c2.97-0.22,4.02-0.64,4.46-1.6h-2.14v-5.2h9.68v5.2h-2.58v0.96c0,0.38,0.11,0.42,0.79,0.42H363.71z M358.68,74.07h-6.6v-5.49h6.38
			v0.86h-2.47v0.64h2.17v2.37h-2.17v0.72h2.69V74.07z M353.41,69.45v0.64h1.4v-0.64H353.41z M356.89,70.93h-3.47v0.71h3.47V70.93z
			 M353.41,73.19h1.4v-0.72h-1.4V73.19z M355.03,76.04h6.87v-0.66h-6.87V76.04z M355.03,77.48h6.87v-0.66h-6.87V77.48z
			 M355.03,78.95h6.87v-0.68h-6.87V78.95z M360.58,70.74c-0.35,0.68-0.74,1.27-1.15,1.74c-0.27-0.22-0.82-0.58-1.15-0.75
			c0.85-0.91,1.54-2.29,1.95-3.69l1.3,0.3c-0.13,0.42-0.27,0.85-0.44,1.26h4.45v1.15H360.58z M359.97,73.59v-1.15h5.16v1.15H359.97z
			"/>
	</g>
</g>
</svg>
