<?xml version="1.0" encoding="utf-8"?>
<!-- Generator: Adobe Illustrator 25.0.0, SVG Export Plug-In . SVG Version: 6.00 Build 0)  -->
<svg version="1.1" id="レイヤー_1" xmlns="http://www.w3.org/2000/svg" xmlns:xlink="http://www.w3.org/1999/xlink" x="0px"
	 y="0px" viewBox="0 0 264.75 35.44" style="enable-background:new 0 0 264.75 35.44;" xml:space="preserve">
<style type="text/css">
	.st0{fill:#FFFFFF;}
</style>
<g>
	<path class="st0" d="M17.21,35.44H1.87l4.86-10.43L4.76,19.7h4.46l6.13-13.16H0L2.99,0h46.23l-3.09,6.48H30.73L17.21,35.44z"/>
	<path class="st0" d="M93.92,35.44H78.58L70.53,19.7l-7.34,15.75H47.8l4.86-10.43l-1.92-5.32h4.4l6.13-13.16L58.88,0h36.2l12.4,6.53
		l-6.18,13.16l-12.66,5.37L93.92,35.44z M92,14.23l1.42-3.9l-1.37-3.8H76.66l-3.54,7.65L92,14.23z"/>
	<path class="st0" d="M125.92,35.44h-15.39l4.86-10.43l-1.92-5.32h4.4L124,6.53L121.62,0h20.81L125.92,35.44z"/>
	<path class="st0" d="M189.71,35.44h-17.27l-6.13-15.75l-7.34,15.75h-15.39l4.86-10.43l-1.92-5.32h4.4l6.13-13.16L154.68,0h20.81
		l6.23,19.7L190.88,0h9.97l2.38,6.48L189.71,35.44z"/>
	<path class="st0" d="M232.75,35.44h-15.34l4.86-10.43l-1.97-5.32h4.46l6.13-13.16h-15.34L218.52,0h46.23l-3.09,6.48h-15.39
		L232.75,35.44z"/>
</g>
</svg>
