<?xml version="1.0" encoding="utf-8"?>
<!-- Generator: Adobe Illustrator 25.0.0, SVG Export Plug-In . SVG Version: 6.00 Build 0)  -->
<svg version="1.1" id="レイヤー_1" xmlns="http://www.w3.org/2000/svg" xmlns:xlink="http://www.w3.org/1999/xlink" x="0px"
	 y="0px" viewBox="0 0 455.27 51.7" style="enable-background:new 0 0 455.27 51.7;" xml:space="preserve">
<style type="text/css">
	.st0{fill:#206BB4;}
	.st1{fill:#0273D9;}
</style>
<g>
	<path class="st0" d="M13.96-93.87"/>
</g>
<g>
	<g>
		<path class="st1" d="M0,0.42h12.64v4.2H4.45v8.19h6.51v4.2H4.45v8.61h8.19v4.2H0V0.42z"/>
		<path class="st1" d="M18.48,0.42h4.91l5.67,19.74V0.42h4.37v29.4h-4.7L22.85,11v18.82h-4.37V0.42z"/>
		<path class="st1" d="M38.98,0.42h14.2v4.2H48.3v25.2h-4.45V4.62h-4.87V0.42z"/>
		<path class="st1" d="M58.71,0.42h12.64v4.2h-8.19v8.19h6.51v4.2h-6.51v8.61h8.19v4.2H58.71V0.42z"/>
		<path class="st1" d="M87.19,29.82l-3.23-12.14h-2.31v12.14h-4.45V0.42h6.97c2.13,0,3.82,0.64,5.08,1.91
			c1.26,1.27,1.89,2.98,1.89,5.1v3.23c0,1.34-0.27,2.54-0.8,3.57c-0.53,1.04-1.29,1.85-2.27,2.44l3.74,13.15H87.19z M81.65,13.48
			h2.31c0.87,0,1.54-0.24,2.02-0.71c0.48-0.48,0.71-1.15,0.71-2.02v-3.4c0-0.87-0.24-1.54-0.71-2.02c-0.48-0.48-1.15-0.71-2.02-0.71
			h-2.31V13.48z"/>
		<path class="st1" d="M128.31,0.42v29.4h-4.45V9.66l-4.16,20.16h-3.11l-4.16-20.16v20.16h-4.37V0.42h6.3l3.86,18.77l3.7-18.77
			H128.31z"/>
		<path class="st1" d="M135.28,0.42h12.64v4.2h-8.19v8.19h6.51v4.2h-6.51v8.61h8.19v4.2h-12.64V0.42z"/>
		<path class="st1" d="M174,0.42v29.4h-4.45V9.66l-4.16,20.16h-3.11l-4.16-20.16v20.16h-4.37V0.42h6.3l3.86,18.77l3.7-18.77H174z"/>
		<path class="st1" d="M194.52,16.84c0.57,0.98,0.86,2.17,0.86,3.57v2.39c0,2.13-0.63,3.83-1.89,5.1c-1.26,1.27-2.95,1.91-5.08,1.91
			h-7.43V0.42h7.06c2.13,0,3.82,0.64,5.08,1.91c1.26,1.27,1.89,2.98,1.89,5.1v1.55c0,2.63-0.99,4.51-2.98,5.63
			C193.11,15.12,193.95,15.86,194.52,16.84z M185.43,4.62v7.98h1.97c1.06,0,1.85-0.26,2.37-0.78c0.52-0.52,0.78-1.31,0.78-2.37v-2.1
			c0-0.87-0.24-1.54-0.71-2.02c-0.48-0.48-1.15-0.71-2.02-0.71H185.43z M190.93,19.95c0-1.06-0.26-1.85-0.78-2.37
			c-0.52-0.52-1.31-0.78-2.37-0.78h-2.35v8.82h2.77c0.87,0,1.54-0.24,2.02-0.71c0.48-0.48,0.71-1.15,0.71-2.02V19.95z"/>
		<path class="st1" d="M201.51,0.42h12.64v4.2h-8.19v8.19h6.51v4.2h-6.51v8.61h8.19v4.2h-12.64V0.42z"/>
		<path class="st1" d="M229.99,29.82l-3.23-12.14h-2.31v12.14h-4.45V0.42h6.97c2.13,0,3.82,0.64,5.08,1.91
			c1.26,1.27,1.89,2.98,1.89,5.1v3.23c0,1.34-0.27,2.54-0.8,3.57c-0.53,1.04-1.29,1.85-2.27,2.44l3.74,13.15H229.99z M224.45,13.48
			h2.31c0.87,0,1.54-0.24,2.02-0.71c0.48-0.48,0.71-1.15,0.71-2.02v-3.4c0-0.87-0.24-1.54-0.71-2.02c-0.48-0.48-1.15-0.71-2.02-0.71
			h-2.31V13.48z"/>
		<path class="st1" d="M250.86,0.42h4.45v29.4h-4.45V0.42z"/>
		<path class="st1" d="M262.29,0.42h4.91l5.67,19.74V0.42h4.37v29.4h-4.7L266.65,11v18.82h-4.37V0.42z"/>
		<path class="st1" d="M284.21,0.42h12.43v4.2h-7.98v8.61h6.3v4.2h-6.3v12.39h-4.45V0.42z"/>
		<path class="st1" d="M303.78,28.29c-1.32-1.3-1.97-3.02-1.97-5.14V7.1c0-2.13,0.66-3.84,1.97-5.15c1.32-1.3,3.04-1.95,5.17-1.95
			c2.13,0,3.85,0.65,5.17,1.95c1.32,1.3,1.97,3.02,1.97,5.15v16.04c0,2.13-0.66,3.84-1.97,5.14c-1.32,1.3-3.04,1.95-5.17,1.95
			C306.82,30.24,305.1,29.59,303.78,28.29z M310.92,25.28c0.48-0.5,0.71-1.22,0.71-2.14V7.1c0-0.92-0.24-1.64-0.71-2.14
			c-0.48-0.5-1.13-0.76-1.97-0.76s-1.5,0.25-1.97,0.76c-0.48,0.5-0.71,1.22-0.71,2.14v16.04c0,0.92,0.24,1.64,0.71,2.14
			c0.48,0.5,1.13,0.76,1.97,0.76S310.44,25.79,310.92,25.28z"/>
		<path class="st1" d="M332.68,29.82l-3.23-12.14h-2.31v12.14h-4.45V0.42h6.97c2.13,0,3.82,0.64,5.08,1.91
			c1.26,1.27,1.89,2.98,1.89,5.1v3.23c0,1.34-0.27,2.54-0.8,3.57c-0.53,1.04-1.29,1.85-2.27,2.44l3.74,13.15H332.68z M327.13,13.48
			h2.31c0.87,0,1.54-0.24,2.02-0.71c0.48-0.48,0.71-1.15,0.71-2.02v-3.4c0-0.87-0.24-1.54-0.71-2.02c-0.48-0.48-1.15-0.71-2.02-0.71
			h-2.31V13.48z"/>
		<path class="st1" d="M363.29,0.42v29.4h-4.45V9.66l-4.16,20.16h-3.11l-4.16-20.16v20.16h-4.37V0.42h6.3l3.86,18.77l3.7-18.77
			H363.29z"/>
		<path class="st1" d="M379.04,23.31h-4.79l-0.97,6.51h-4.45l4.87-29.4h5.96l4.87,29.4h-4.54L379.04,23.31z M378.46,19.03
			l-1.81-12.31l-1.81,12.31H378.46z"/>
		<path class="st1" d="M388.66,0.42h14.2v4.2h-4.87v25.2h-4.45V4.62h-4.87V0.42z"/>
		<path class="st1" d="M408.4,0.42h4.45v29.4h-4.45V0.42z"/>
		<path class="st1" d="M421.42,28.29c-1.32-1.3-1.97-3.02-1.97-5.14V7.1c0-2.13,0.66-3.84,1.97-5.15c1.32-1.3,3.04-1.95,5.17-1.95
			c2.13,0,3.85,0.65,5.17,1.95c1.32,1.3,1.97,3.02,1.97,5.15v16.04c0,2.13-0.66,3.84-1.97,5.14c-1.32,1.3-3.04,1.95-5.17,1.95
			C424.46,30.24,422.74,29.59,421.42,28.29z M428.56,25.28c0.48-0.5,0.71-1.22,0.71-2.14V7.1c0-0.92-0.24-1.64-0.71-2.14
			c-0.48-0.5-1.13-0.76-1.97-0.76s-1.5,0.25-1.97,0.76c-0.48,0.5-0.71,1.22-0.71,2.14v16.04c0,0.92,0.24,1.64,0.71,2.14
			c0.48,0.5,1.13,0.76,1.97,0.76S428.08,25.79,428.56,25.28z"/>
		<path class="st1" d="M440.32,0.42h4.91l5.67,19.74V0.42h4.37v29.4h-4.7L444.69,11v18.82h-4.37V0.42z"/>
	</g>
	<g>
		<g>
			<path d="M195.57,45.65c-0.55,0.39-1.14,0.75-1.74,1.04c-0.1-0.21-0.35-0.56-0.55-0.76c1.71-0.78,3.34-2.22,4.09-3.44h0.96
				c1.06,1.47,2.72,2.69,4.28,3.3c-0.22,0.23-0.43,0.56-0.59,0.84c-0.58-0.28-1.19-0.63-1.77-1.04v0.78h-4.68V45.65z M193.85,47.4
				h8.21v0.87h-4.58c-0.33,0.67-0.7,1.42-1.06,2.06c1.11-0.04,2.35-0.09,3.57-0.14c-0.37-0.42-0.77-0.84-1.16-1.19l0.8-0.43
				c0.91,0.77,1.86,1.83,2.32,2.57l-0.85,0.53c-0.11-0.19-0.26-0.41-0.44-0.65c-2.38,0.12-4.92,0.23-6.62,0.3l-0.12-0.91l1.48-0.05
				c0.33-0.62,0.69-1.42,0.93-2.09h-2.48V47.4z M200.14,45.5c-0.9-0.64-1.72-1.39-2.25-2.12c-0.48,0.7-1.24,1.45-2.13,2.12H200.14z"
				/>
			<path d="M211.57,49.96c1.01,0.29,2.22,0.73,2.98,1.05l-0.82,0.65c-0.75-0.34-2.1-0.85-3.15-1.15l0.74-0.55h-2.92l0.72,0.48
				c-0.8,0.48-2.08,0.96-3.1,1.21c-0.17-0.19-0.47-0.5-0.7-0.67c0.96-0.22,2.14-0.64,2.8-1.02h-1.75v-4.32h7.14v4.32H211.57z
				 M213.12,45.17h-6.32v-2.34h6.32V45.17z M207.29,46.88h5.25v-0.57h-5.25V46.88z M207.29,48.09h5.25v-0.58h-5.25V48.09z
				 M207.29,49.3h5.25v-0.59h-5.25V49.3z M212.14,43.57h-4.41v0.86h4.41V43.57z"/>
			<path d="M217.21,46.98c0.21-0.68,0.37-1.79,0.43-2.57l0.67,0.08c-0.03,0.79-0.19,1.96-0.4,2.71L217.21,46.98z M219.81,45.59
				c-0.1-0.35-0.31-0.94-0.51-1.4v7.45h-0.85v-9.15h0.85v1.63l0.58-0.23c0.2,0.45,0.46,1.04,0.56,1.41L219.81,45.59z M226.48,45.66
				v0.69H220v-0.69h2.74v-0.58h-2.2v-0.65h2.2v-0.52h-2.44v-0.69h2.44v-0.74h0.92v0.74h2.53v0.69h-2.53v0.52h2.27v0.65h-2.27v0.58
				H226.48z M225.75,50.69c0,0.42-0.09,0.66-0.39,0.79c-0.31,0.13-0.78,0.14-1.47,0.14c-0.04-0.23-0.16-0.58-0.27-0.8
				c0.46,0.03,0.94,0.02,1.07,0.02c0.14-0.01,0.18-0.05,0.18-0.17v-0.54h-3.31v1.51h-0.86v-4.81h5.05V50.69z M221.56,47.53v0.62
				h3.31v-0.62H221.56z M224.87,49.46v-0.62h-3.31v0.62H224.87z"/>
			<path d="M232.04,45.09h1.75v0.79h-0.93l0.43,0.11c-0.17,0.42-0.35,0.86-0.51,1.18h0.89v0.8h-1.63v0.94h1.5v0.79h-1.5v1.93h-0.87
				v-1.93h-1.57V48.9h1.57v-0.94h-1.66v-0.8h0.87c-0.05-0.34-0.2-0.81-0.38-1.18l0.41-0.11h-1.07v-0.79h1.83v-0.87h-1.47v-0.78h1.47
				V42.5h0.87v0.94h1.38v0.78h-1.38V45.09z M232.06,47.07c0.14-0.34,0.32-0.84,0.42-1.2h-1.73c0.18,0.39,0.35,0.88,0.39,1.2
				l-0.33,0.09h1.59L232.06,47.07z M238.27,46.46c-0.2,1.19-0.58,2.31-1.13,3.26c0.43,0.5,0.93,0.91,1.49,1.19
				c-0.2,0.17-0.48,0.51-0.62,0.74c-0.51-0.3-0.97-0.7-1.38-1.18c-0.35,0.46-0.76,0.86-1.22,1.19c-0.12-0.17-0.32-0.39-0.51-0.54
				v0.53h-0.84v-8.74h3.98v1.89c0,0.43-0.09,0.67-0.44,0.8c-0.33,0.13-0.84,0.13-1.59,0.13c-0.04-0.24-0.16-0.58-0.28-0.8
				c0.57,0.02,1.1,0.02,1.25,0.01c0.15-0.01,0.19-0.04,0.19-0.15v-1.06h-2.27v2.56h2.65l0.15-0.04L238.27,46.46z M234.9,50.95
				c0.46-0.32,0.85-0.73,1.19-1.2c-0.51-0.79-0.9-1.71-1.19-2.7V50.95z M235.68,47.05c0.22,0.68,0.52,1.33,0.89,1.92
				c0.32-0.6,0.55-1.25,0.71-1.92H235.68z"/>
			<path d="M246.53,43.06c0,1.81,0.23,5.52,4.04,7.77c-0.21,0.16-0.59,0.56-0.75,0.79c-2.27-1.37-3.34-3.41-3.83-5.25
				c-0.74,2.41-1.99,4.16-3.84,5.27c-0.18-0.19-0.61-0.58-0.86-0.75c2.15-1.11,3.36-3.08,3.94-5.79l0.51,0.09
				c-0.07-0.42-0.11-0.83-0.13-1.19h-2.38v-0.94H246.53z"/>
			<path d="M261.99,44.6c0,0-0.01,0.33-0.02,0.46c-0.22,4.05-0.41,5.53-0.85,6.04c-0.27,0.32-0.53,0.42-0.92,0.46
				c-0.36,0.04-1,0.03-1.59,0c-0.02-0.27-0.15-0.68-0.33-0.96c0.66,0.06,1.27,0.06,1.52,0.06c0.22,0,0.34-0.03,0.46-0.15
				c0.34-0.32,0.55-1.69,0.72-4.96h-3.13c-0.15,2.06-0.83,4.48-3.67,6.16c-0.15-0.23-0.5-0.58-0.72-0.75
				c2.6-1.49,3.25-3.61,3.4-5.41h-3.1V44.6h3.15v-0.25V42.5h0.98v1.85v0.25H261.99z"/>
		</g>
	</g>
</g>
</svg>
