<?xml version="1.0" encoding="utf-8"?>
<!-- Generator: Adobe Illustrator 25.0.0, SVG Export Plug-In . SVG Version: 6.00 Build 0)  -->
<svg version="1.1" id="レイヤー_1" xmlns="http://www.w3.org/2000/svg" xmlns:xlink="http://www.w3.org/1999/xlink" x="0px"
	 y="0px" viewBox="0 0 118.77 51.7" style="enable-background:new 0 0 118.77 51.7;" xml:space="preserve">
<style type="text/css">
	.st0{fill:#0273D9;}
	.st1{fill:#040000;}
	.st2{fill:#206BB4;}
</style>
<g>
	<g>
		<path class="st0" d="M3.44,29.32C2.35,28.7,1.5,27.85,0.9,26.75C0.3,25.66,0,24.42,0,23.02v-1.05l4.28-0.46v1.09
			c0,1.06,0.25,1.9,0.76,2.52c0.5,0.62,1.2,0.92,2.1,0.92c0.87,0,1.56-0.25,2.08-0.76c0.52-0.5,0.78-1.19,0.78-2.06
			c0-0.95-0.27-1.86-0.82-2.73c-0.55-0.87-1.63-2.07-3.25-3.61c-2.18-2.07-3.68-3.79-4.47-5.17s-1.2-2.87-1.2-4.49
			c0-2.21,0.6-3.97,1.81-5.27C3.26,0.65,4.91,0,7.01,0s3.75,0.66,4.96,1.97c1.2,1.32,1.81,3.08,1.81,5.29v0.76L9.49,8.48V7.64
			c0-1.12-0.21-1.97-0.63-2.56S7.84,4.2,7.06,4.2c-0.78,0-1.39,0.24-1.81,0.71c-0.42,0.48-0.63,1.18-0.63,2.1
			c0,0.92,0.28,1.81,0.84,2.67c0.56,0.85,1.64,2.08,3.23,3.67c2.18,2.18,3.67,3.94,4.47,5.27c0.8,1.33,1.2,2.79,1.2,4.39
			c0,1.4-0.3,2.65-0.9,3.74c-0.6,1.09-1.45,1.95-2.54,2.56c-1.09,0.62-2.34,0.92-3.74,0.92C5.78,30.24,4.54,29.93,3.44,29.32z"/>
		<path class="st0" d="M20.24,0.42h4.45v29.4h-4.45V0.42z"/>
		<path class="st0" d="M41.12,9.58V7.1c0-0.92-0.24-1.64-0.71-2.14S39.27,4.2,38.43,4.2c-0.84,0-1.5,0.25-1.97,0.76
			c-0.48,0.5-0.71,1.22-0.71,2.14v16.04c0,0.92,0.24,1.64,0.71,2.14c0.48,0.5,1.13,0.76,1.97,0.76c0.84,0,1.5-0.25,1.97-0.76
			s0.71-1.22,0.71-2.14v-5.21h-2.69v-4.2h7.14v9.41c0,2.13-0.66,3.84-1.97,5.14c-1.32,1.3-3.04,1.95-5.17,1.95
			c-2.13,0-3.85-0.65-5.17-1.95c-1.32-1.3-1.97-3.02-1.97-5.14V7.1c0-2.13,0.66-3.84,1.97-5.15C34.58,0.65,36.3,0,38.43,0
			c2.13,0,3.85,0.65,5.17,1.95c1.32,1.3,1.97,3.02,1.97,5.15v2.48H41.12z"/>
		<path class="st0" d="M51.99,0.42h4.91l5.67,19.74V0.42h4.37v29.4h-4.7L56.36,11v18.82h-4.37V0.42z"/>
		<path class="st0" d="M86.18,28.33c-1.29-1.27-1.93-2.93-1.93-4.98V0.42h4.45v22.93c0,0.84,0.23,1.5,0.69,1.97
			c0.46,0.48,1.06,0.71,1.79,0.71c0.73,0,1.32-0.24,1.79-0.71c0.46-0.48,0.69-1.13,0.69-1.97V0.42h4.37v22.93
			c0,2.04-0.63,3.7-1.89,4.98c-1.26,1.27-2.91,1.91-4.96,1.91S87.47,29.6,86.18,28.33z"/>
		<path class="st0" d="M104.83,0.42h6.97c2.13,0,3.82,0.64,5.08,1.91c1.26,1.27,1.89,2.98,1.89,5.1v3.44c0,2.13-0.63,3.83-1.89,5.1
			c-1.26,1.27-2.96,1.91-5.08,1.91h-2.52v11.93h-4.45V0.42z M111.59,13.69c0.87,0,1.54-0.24,2.02-0.71
			c0.48-0.48,0.71-1.15,0.71-2.02V7.35c0-0.87-0.24-1.54-0.71-2.02c-0.48-0.48-1.15-0.71-2.02-0.71h-2.31v9.07H111.59z"/>
	</g>
	<g>
		<g>
			<path class="st1" d="M40.62,50.27c-0.2-0.24-0.6-0.64-0.97-0.99v2.37h-0.9v-2.34c-0.45,0.67-0.98,1.28-1.49,1.68
				c-0.14-0.21-0.41-0.51-0.6-0.67c0.68-0.45,1.43-1.28,1.91-2.1H36.9v-0.79h1.85v-0.91h-1.88v-0.79h1.03
				c-0.03-0.36-0.18-0.89-0.35-1.29l0.68-0.17H37v-0.77h1.75v-0.95h0.9v0.95h1.75v0.77h-1.21l0.7,0.16
				c-0.19,0.47-0.38,0.96-0.55,1.3h1.17v0.79h-1.86v0.91h1.77v0.79h-1.77v0.17c0.36,0.25,1.28,1,1.51,1.19L40.62,50.27z
				 M38.27,44.28c0.2,0.42,0.36,0.95,0.4,1.31l-0.58,0.15h2.2l-0.69-0.15c0.16-0.37,0.35-0.91,0.45-1.31H38.27z M45.96,46.67h-1.05
				v4.95h-0.9v-4.95h-1.29v0.09c0,1.48-0.18,3.56-1.56,4.95c-0.11-0.2-0.45-0.52-0.66-0.64c1.21-1.23,1.33-2.94,1.33-4.32v-3.46
				l0.62,0.18c0.98-0.23,2.04-0.54,2.66-0.86l0.75,0.67c-0.86,0.39-2.06,0.7-3.14,0.91v1.62h3.24V46.67z"/>
			<path class="st1" d="M52.21,50.18c-0.23-0.38-0.74-1.04-1.17-1.57c-0.23,1.1-0.71,2.16-1.66,2.93c-0.13-0.19-0.42-0.5-0.64-0.66
				c1.2-0.89,1.53-2.34,1.62-3.66h-1.52v-0.85h1.55v-0.29v-1.17h-1.36v-0.83h1.36V42.6h0.87v1.49h1.34v0.83h-1.34v1.17v0.29h1.51
				v0.85h-1.54c-0.01,0.14-0.03,0.29-0.04,0.43c0.41,0.4,1.42,1.55,1.66,1.85L52.21,50.18z M57.02,50.67c0.18,0,0.22-0.14,0.25-1.26
				c0.17,0.16,0.54,0.29,0.76,0.35c-0.07,1.38-0.29,1.73-0.93,1.73h-0.74c-0.77,0-0.93-0.27-0.93-1.09v-1.94h-0.72
				c-0.18,1.48-0.66,2.58-2.37,3.2c-0.1-0.2-0.33-0.54-0.52-0.69c1.49-0.49,1.86-1.35,2.01-2.51h-0.72v-5.6h4.31v5.6h-1.13v1.93
				c0,0.25,0.03,0.28,0.22,0.28H57.02z M53.98,44.5h2.55v-0.79h-2.55V44.5z M53.98,46.07h2.55v-0.82h-2.55V46.07z M53.98,47.62h2.55
				v-0.81h-2.55V47.62z"/>
			<path class="st1" d="M69.75,44.23c-0.42,0.38-0.94,0.79-1.4,1.11c0.53,0.42,1.1,0.76,1.71,0.99c-0.21,0.18-0.49,0.53-0.62,0.77
				c-0.83-0.38-1.58-0.92-2.24-1.59V46h-3.66v-0.41c-0.7,0.7-1.52,1.25-2.34,1.63c-0.11-0.19-0.37-0.51-0.55-0.67
				c0.63-0.26,1.28-0.68,1.86-1.18c-0.3-0.31-0.78-0.68-1.19-0.94l0.5-0.51c0.44,0.25,0.95,0.62,1.24,0.92
				c0.35-0.37,0.66-0.78,0.9-1.2h-2.28v-0.77h2.73l0.16-0.04l0.6,0.31c-0.29,0.77-0.73,1.46-1.26,2.06h3
				c-0.63-0.71-1.15-1.53-1.54-2.43l0.79-0.24c0.17,0.39,0.38,0.77,0.63,1.13c0.42-0.34,0.88-0.75,1.16-1.07l0.7,0.5
				c-0.44,0.39-0.97,0.82-1.43,1.14c0.18,0.22,0.38,0.43,0.59,0.63c0.45-0.34,0.94-0.77,1.25-1.12L69.75,44.23z M67.65,49.43
				c-0.22,0.45-0.46,0.9-0.66,1.24h2.69v0.78H61.1v-0.78h2.57c-0.1-0.36-0.31-0.84-0.52-1.2l0.55-0.15h-1.12V46.7h5.59v2.63h-0.96
				L67.65,49.43z M63.48,48.57h3.74v-1.12h-3.74V48.57z M64.04,49.32c0.25,0.39,0.48,0.88,0.57,1.24l-0.4,0.11h2.2l-0.31-0.08
				c0.21-0.34,0.46-0.87,0.62-1.27H64.04z"/>
			<path class="st1" d="M78.68,49.64c-0.61,0.47-1.27,0.95-1.85,1.35l-0.24-0.42l0.01,0.08c-1.25,0.27-2.56,0.55-3.56,0.75
				l-0.19-0.85c0.44-0.07,0.98-0.17,1.57-0.28v-2.82h-1.46v-0.81h1.46v-0.91h-0.96V45.3c-0.1,0.09-0.2,0.19-0.31,0.29
				c-0.12-0.19-0.4-0.47-0.57-0.59c0.87-0.74,1.49-1.72,1.81-2.5h0.79c0.59,0.51,1.32,1.25,1.67,1.75l-0.6,0.7h0.08v0.79h-1.1v0.91
				h1.35v0.81h-1.35v2.67l1.3-0.25l0.02,0.27c0.5-0.31,1.17-0.75,1.85-1.2L78.68,49.64z M73.74,47.9c0.19,0.59,0.35,1.32,0.39,1.81
				l-0.66,0.17c-0.02-0.49-0.17-1.25-0.34-1.82L73.74,47.9z M76.23,44.95c-0.28-0.43-0.82-1.1-1.32-1.58
				c-0.28,0.48-0.65,1.04-1.13,1.58H76.23z M75.48,49.54c0.15-0.47,0.32-1.22,0.39-1.72l0.7,0.18c-0.17,0.58-0.35,1.25-0.5,1.7
				L75.48,49.54z M80.21,48.32c0.42,0.81,1.04,1.57,1.92,2.02c-0.18,0.17-0.47,0.53-0.6,0.76c-0.87-0.54-1.48-1.42-1.89-2.28v1.92
				c0,0.42-0.06,0.65-0.33,0.79c-0.26,0.13-0.65,0.14-1.19,0.14c-0.02-0.23-0.13-0.58-0.23-0.81c0.33,0.01,0.65,0.01,0.75,0.01
				c0.11-0.01,0.14-0.04,0.14-0.15v-4.13h-2.15v-0.8h3.66v-0.71h-2.95v-0.73h2.95v-0.71h-3.15v-0.78h4.01v2.93h0.78v0.8h-2.29v0.25
				c0.12,0.43,0.28,0.9,0.5,1.35c0.36-0.36,0.8-0.92,1.05-1.32l0.73,0.46c-0.4,0.47-0.87,0.97-1.24,1.31L80.21,48.32z M77.4,47.04
				c0.41,0.38,0.87,0.92,1.07,1.29l-0.67,0.45c-0.18-0.38-0.62-0.94-1.02-1.34L77.4,47.04z"/>
		</g>
	</g>
</g>
<g>
	<path class="st2" d="M-135.69-93.87"/>
</g>
</svg>
