<?xml version="1.0" encoding="utf-8"?>
<!-- Generator: Adobe Illustrator 25.0.0, SVG Export Plug-In . SVG Version: 6.00 Build 0)  -->
<svg version="1.1" id="レイヤー_1" xmlns="http://www.w3.org/2000/svg" xmlns:xlink="http://www.w3.org/1999/xlink" x="0px"
	 y="0px" viewBox="0 0 575.19 288.36" style="enable-background:new 0 0 575.19 288.36;" xml:space="preserve">
<style type="text/css">
	.st0{fill:#FFFFFF;}
</style>
<g>
	<g>
		<path class="st0" d="M83.13,3.27v114.35H65.81V39.21l-16.17,78.41H37.55L21.38,39.21v78.41H4.39V3.27h24.5l15.03,73.02L58.3,3.27
			H83.13z"/>
		<path class="st0" d="M116.45,110.02c-5.12-5.06-7.68-11.73-7.68-20.01v-62.4c0-8.28,2.56-14.95,7.68-20.01S128.27,0,136.54,0
			s14.97,2.53,20.09,7.6c5.12,5.06,7.68,11.74,7.68,20.01v62.4c0,8.28-2.56,14.95-7.68,20.01c-5.12,5.06-11.82,7.6-20.09,7.6
			C128.27,117.62,121.57,115.09,116.45,110.02z M144.22,98.34c1.85-1.96,2.78-4.74,2.78-8.33v-62.4c0-3.59-0.93-6.37-2.78-8.33
			s-4.41-2.94-7.68-2.94c-3.27,0-5.83,0.98-7.68,2.94c-1.85,1.96-2.78,4.74-2.78,8.33v62.4c0,3.59,0.92,6.37,2.78,8.33
			c1.85,1.96,4.41,2.94,7.68,2.94S142.37,100.3,144.22,98.34z"/>
		<path class="st0" d="M228.84,117.62l-12.58-47.21h-8.98v47.21h-17.32V3.26h27.12c8.28,0,14.87,2.48,19.77,7.43
			c4.9,4.96,7.35,11.57,7.35,19.85v12.58c0,5.23-1.04,9.86-3.1,13.89c-2.07,4.03-5.01,7.19-8.82,9.48l14.54,51.13
			C246.82,117.62,228.84,117.62,228.84,117.62z M207.28,54.07h8.98c3.37,0,5.99-0.92,7.84-2.78c1.85-1.85,2.78-4.46,2.78-7.84V30.22
			c0-3.37-0.93-5.99-2.78-7.84s-4.47-2.78-7.84-2.78h-8.98V54.07z"/>
		<path class="st0" d="M269.19,3.26h49.17V19.6h-31.85v31.85h25.32v16.34h-25.32v33.49h31.85v16.34h-49.17V3.26z"/>
		<path class="st0" d="M367.73,3.26h48.35V19.6h-31.03v33.49h24.5v16.34h-24.5v48.19h-17.32V3.26z"/>
		<path class="st0" d="M444.51,110.19c-5.01-4.95-7.51-11.41-7.51-19.36V1.64h17.32v89.19c0,3.27,0.9,5.83,2.7,7.68
			c1.8,1.85,4.11,2.78,6.94,2.78c2.83,0,5.15-0.92,6.94-2.78c1.8-1.85,2.7-4.41,2.7-7.68V1.64h16.99v89.19
			c0,7.95-2.45,14.4-7.35,19.36c-4.9,4.96-11.33,7.43-19.28,7.43C456,117.62,449.52,115.14,444.51,110.19z"/>
		<path class="st0" d="M517.04,3.27h19.11l22.05,76.78V3.27h16.99v114.35h-18.3l-22.87-73.18v73.18h-16.99V3.27H517.04z"/>
	</g>
	<g>
		<path class="st0" d="M0,221.8h2.32c0.71,0,1.27,0.21,1.69,0.64s0.63,0.99,0.63,1.7v5.12c0,0.71-0.21,1.28-0.63,1.7
			s-0.98,0.64-1.69,0.64H0V221.8z M2.25,230.2c0.29,0,0.51-0.08,0.67-0.24s0.24-0.38,0.24-0.67v-5.18c0-0.29-0.08-0.51-0.24-0.67
			s-0.38-0.24-0.67-0.24H1.48v7H2.25z"/>
		<path class="st0" d="M10.86,231.6l-1.08-4.05H9.02v4.05H7.53v-9.8h2.32c0.71,0,1.27,0.21,1.69,0.64s0.63,0.99,0.63,1.7v1.08
			c0,0.45-0.09,0.84-0.27,1.19s-0.43,0.62-0.76,0.81l1.25,4.38L10.86,231.6L10.86,231.6z M9.02,226.15h0.77
			c0.29,0,0.51-0.08,0.67-0.24s0.24-0.38,0.24-0.67v-1.13c0-0.29-0.08-0.51-0.24-0.67s-0.38-0.24-0.67-0.24H9.02V226.15z"/>
		<path class="st0" d="M15.02,221.8h4.21v1.4H16.5v2.73h2.17v1.4H16.5v2.87h2.73v1.4h-4.21C15.02,231.6,15.02,221.8,15.02,221.8z"/>
		<path class="st0" d="M24.81,229.43h-1.6l-0.32,2.17h-1.48l1.62-9.8h1.99l1.62,9.8h-1.51L24.81,229.43z M24.61,228l-0.6-4.1
			l-0.6,4.1H24.61z"/>
		<path class="st0" d="M35.94,221.8v9.8h-1.48v-6.72l-1.39,6.72h-1.04l-1.39-6.72v6.72h-1.46v-9.8h2.1l1.29,6.26l1.23-6.26H35.94z"
			/>
		<path class="st0" d="M47.68,227.27c0.19,0.33,0.29,0.72,0.29,1.19v0.8c0,0.71-0.21,1.28-0.63,1.7s-0.98,0.64-1.69,0.64h-2.48v-9.8
			h2.35c0.71,0,1.27,0.21,1.69,0.64s0.63,0.99,0.63,1.7v0.52c0,0.88-0.33,1.5-0.99,1.88C47.21,226.7,47.48,226.94,47.68,227.27z
			 M44.65,223.2v2.66h0.66c0.35,0,0.62-0.09,0.79-0.26c0.17-0.17,0.26-0.44,0.26-0.79v-0.7c0-0.29-0.08-0.51-0.24-0.67
			s-0.38-0.24-0.67-0.24L44.65,223.2L44.65,223.2z M46.48,228.31c0-0.35-0.09-0.62-0.26-0.79s-0.44-0.26-0.79-0.26h-0.78v2.94h0.92
			c0.29,0,0.51-0.08,0.67-0.24s0.24-0.38,0.24-0.67V228.31z"/>
		<path class="st0" d="M50.71,221.8h1.48v9.8h-1.48V221.8z"/>
		<path class="st0" d="M58.37,224.85v-0.83c0-0.31-0.08-0.55-0.24-0.71s-0.38-0.25-0.66-0.25s-0.5,0.08-0.66,0.25
			s-0.24,0.41-0.24,0.71v5.35c0,0.31,0.08,0.55,0.24,0.71c0.16,0.17,0.38,0.25,0.66,0.25s0.5-0.08,0.66-0.25s0.24-0.41,0.24-0.71
			v-1.74h-0.9v-1.4h2.38v3.14c0,0.71-0.22,1.28-0.66,1.71s-1.01,0.65-1.72,0.65s-1.28-0.22-1.72-0.65
			c-0.44-0.43-0.66-1.01-0.66-1.71v-5.35c0-0.71,0.22-1.28,0.66-1.71s1.01-0.65,1.72-0.65s1.28,0.22,1.72,0.65
			c0.44,0.43,0.66,1.01,0.66,1.71v0.83L58.37,224.85L58.37,224.85z"/>
		<path class="st0" d="M66.41,221.8h4.73v1.4h-1.62v8.4h-1.48v-8.4h-1.62L66.41,221.8L66.41,221.8z"/>
		<path class="st0" d="M73.69,231.6v-9.8h1.48v4.13h1.76v-4.13h1.48v9.8h-1.48v-4.27h-1.76v4.27H73.69z"/>
		<path class="st0" d="M81.45,221.8h1.48v9.8h-1.48V221.8z"/>
		<path class="st0" d="M85.96,221.8h1.64l1.89,6.58v-6.58h1.46v9.8h-1.57l-1.96-6.27v6.27h-1.46V221.8z"/>
		<path class="st0" d="M97.12,224.85v-0.83c0-0.31-0.08-0.55-0.24-0.71s-0.38-0.25-0.66-0.25c-0.28,0-0.5,0.08-0.66,0.25
			s-0.24,0.41-0.24,0.71v5.35c0,0.31,0.08,0.55,0.24,0.71c0.16,0.17,0.38,0.25,0.66,0.25c0.28,0,0.5-0.08,0.66-0.25
			s0.24-0.41,0.24-0.71v-1.74h-0.9v-1.4h2.38v3.14c0,0.71-0.22,1.28-0.66,1.71s-1.01,0.65-1.72,0.65s-1.28-0.22-1.72-0.65
			s-0.66-1.01-0.66-1.71v-5.35c0-0.71,0.22-1.28,0.66-1.71s1.01-0.65,1.72-0.65s1.28,0.22,1.72,0.65s0.66,1.01,0.66,1.71v0.83
			L97.12,224.85L97.12,224.85z"/>
		<path class="st0" d="M102.25,231.43c-0.36-0.21-0.65-0.49-0.85-0.85c-0.2-0.36-0.3-0.78-0.3-1.25v-0.35l1.43-0.15v0.36
			c0,0.36,0.08,0.63,0.25,0.84s0.4,0.31,0.7,0.31c0.29,0,0.52-0.08,0.69-0.25s0.26-0.4,0.26-0.69c0-0.32-0.09-0.62-0.27-0.91
			s-0.54-0.69-1.08-1.2c-0.73-0.69-1.23-1.26-1.49-1.72c-0.27-0.46-0.4-0.96-0.4-1.5c0-0.74,0.2-1.32,0.6-1.76
			c0.4-0.43,0.95-0.65,1.65-0.65s1.25,0.22,1.65,0.66s0.6,1.03,0.6,1.76v0.25l-1.43,0.15v-0.28c0-0.37-0.07-0.66-0.21-0.85
			c-0.14-0.2-0.34-0.29-0.6-0.29s-0.46,0.08-0.6,0.24s-0.21,0.39-0.21,0.7s0.09,0.6,0.28,0.89s0.55,0.69,1.08,1.22
			c0.73,0.73,1.23,1.31,1.49,1.76c0.27,0.44,0.4,0.93,0.4,1.46c0,0.47-0.1,0.88-0.3,1.25c-0.2,0.36-0.48,0.65-0.85,0.85
			c-0.36,0.21-0.78,0.31-1.25,0.31C103.03,231.74,102.62,231.63,102.25,231.43z"/>
		<path class="st0" d="M110.07,221.8v3.09l-0.25,4.19h-0.98l-0.25-4.19v-3.09H110.07z M110.07,230.11v1.48h-1.48v-1.48H110.07z"/>
		<path class="st0" d="M117.78,221.8h1.64l1.89,6.58v-6.58h1.46v9.8h-1.57l-1.96-6.27v6.27h-1.46V221.8z"/>
		<path class="st0" d="M125.79,221.8H130v1.4h-2.73v2.73h2.17v1.4h-2.17v2.87H130v1.4h-4.21V221.8z"/>
		<path class="st0" d="M137.41,221.8l-1.62,9.8h-1.99l-1.62-9.8h1.51l1.12,7.7l1.12-7.7H137.41z"/>
		<path class="st0" d="M139.96,221.8h4.21v1.4h-2.73v2.73h2.17v1.4h-2.17v2.87h2.73v1.4h-4.21V221.8z"/>
		<path class="st0" d="M150.15,231.6l-1.08-4.05h-0.77v4.05h-1.48v-9.8h2.32c0.71,0,1.27,0.21,1.69,0.64s0.63,0.99,0.63,1.7v1.08
			c0,0.45-0.09,0.84-0.27,1.19c-0.18,0.35-0.43,0.62-0.76,0.81l1.25,4.38L150.15,231.6L150.15,231.6z M148.3,226.15h0.77
			c0.29,0,0.51-0.08,0.67-0.24s0.24-0.38,0.24-0.67v-1.13c0-0.29-0.08-0.51-0.24-0.67s-0.38-0.24-0.67-0.24h-0.77V226.15z"/>
		<path class="st0" d="M161.65,224.85v-0.83c0-0.31-0.08-0.55-0.24-0.71s-0.38-0.25-0.66-0.25s-0.5,0.08-0.66,0.25
			s-0.24,0.41-0.24,0.71v5.35c0,0.31,0.08,0.55,0.24,0.71c0.16,0.17,0.38,0.25,0.66,0.25s0.5-0.08,0.66-0.25s0.24-0.41,0.24-0.71
			v-1.74h-0.9v-1.4h2.38v3.14c0,0.71-0.22,1.28-0.66,1.71s-1.01,0.65-1.72,0.65s-1.28-0.22-1.72-0.65s-0.66-1.01-0.66-1.71v-5.35
			c0-0.71,0.22-1.28,0.66-1.71s1.01-0.65,1.72-0.65s1.28,0.22,1.72,0.65s0.66,1.01,0.66,1.71v0.83L161.65,224.85L161.65,224.85z"/>
		<path class="st0" d="M165.98,221.8h1.48v9.8h-1.48V221.8z"/>
		<path class="st0" d="M175.25,221.8l-1.62,9.8h-1.99l-1.62-9.8h1.51l1.12,7.7l1.12-7.7H175.25z"/>
		<path class="st0" d="M177.8,221.8h4.21v1.4h-2.73v2.73h2.17v1.4h-2.17v2.87h2.73v1.4h-4.21V221.8z"/>
		<path class="st0" d="M189.44,231.1c-0.43-0.42-0.64-0.98-0.64-1.66v-7.64h1.48v7.64c0,0.28,0.08,0.5,0.23,0.66
			s0.35,0.24,0.59,0.24s0.44-0.08,0.6-0.24c0.15-0.16,0.23-0.38,0.23-0.66v-7.64h1.46v7.64c0,0.68-0.21,1.23-0.63,1.66
			c-0.42,0.42-0.97,0.64-1.65,0.64S189.87,231.52,189.44,231.1z"/>
		<path class="st0" d="M196.36,221.8h2.32c0.71,0,1.27,0.21,1.69,0.64s0.63,0.99,0.63,1.7v1.15c0,0.71-0.21,1.28-0.63,1.7
			s-0.98,0.64-1.69,0.64h-0.84v3.98h-1.48L196.36,221.8L196.36,221.8z M198.61,226.22c0.29,0,0.51-0.08,0.67-0.24
			s0.24-0.38,0.24-0.67v-1.2c0-0.29-0.08-0.51-0.24-0.67s-0.38-0.24-0.67-0.24h-0.77v3.02L198.61,226.22L198.61,226.22z"/>
		<path class="st0" d="M208.39,231.08c-0.44-0.43-0.66-1.01-0.66-1.71v-5.35c0-0.71,0.22-1.28,0.66-1.71s1.01-0.65,1.72-0.65
			s1.28,0.22,1.72,0.65s0.66,1.01,0.66,1.71v5.35c0,0.71-0.22,1.28-0.66,1.71s-1.01,0.65-1.72,0.65S208.83,231.52,208.39,231.08z
			 M210.77,230.08c0.16-0.17,0.24-0.41,0.24-0.71v-5.35c0-0.31-0.08-0.55-0.24-0.71s-0.38-0.25-0.66-0.25s-0.5,0.08-0.66,0.25
			s-0.24,0.41-0.24,0.71v5.35c0,0.31,0.08,0.55,0.24,0.71c0.16,0.17,0.38,0.25,0.66,0.25C210.39,230.34,210.61,230.25,210.77,230.08
			z"/>
		<path class="st0" d="M215.39,221.8h1.64l1.89,6.58v-6.58h1.46v9.8h-1.57l-1.96-6.27v6.27h-1.46L215.39,221.8L215.39,221.8z"/>
		<path class="st0" d="M227.12,221.8h4.73v1.4h-1.62v8.4h-1.48v-8.4h-1.62v-1.4H227.12z"/>
		<path class="st0" d="M234.4,231.6v-9.8h1.48v4.13h1.76v-4.13h1.48v9.8h-1.48v-4.27h-1.76v4.27H234.4z"/>
		<path class="st0" d="M242.15,221.8h4.21v1.4h-2.73v2.73h2.17v1.4h-2.17v2.87h2.73v1.4h-4.21V221.8z"/>
		<path class="st0" d="M260.48,221.8l-1.44,9.8h-1.64l-0.78-6.45l-0.78,6.45h-1.64l-1.44-9.8h1.5l0.81,6.62l0.81-6.62h1.51
			l0.81,6.62l0.81-6.62H260.48z"/>
		<path class="st0" d="M265.97,229.43h-1.6l-0.32,2.17h-1.48l1.62-9.8h1.99l1.62,9.8h-1.51L265.97,229.43z M265.77,228l-0.6-4.1
			l-0.6,4.1H265.77z"/>
		<path class="st0" d="M275.28,221.8l-1.99,5.7v4.1h-1.48v-4.1l-1.99-5.7h1.58l1.15,3.74l1.18-3.74H275.28z"/>
		<path class="st0" d="M277.87,230.13h1.48v1.47h-1.48V230.13z"/>
		<path class="st0" d="M0,240.53h2.32c0.71,0,1.27,0.21,1.69,0.64s0.63,0.99,0.63,1.7v5.12c0,0.71-0.21,1.28-0.63,1.7
			s-0.98,0.64-1.69,0.64H0V240.53z M2.25,248.93c0.29,0,0.51-0.08,0.67-0.24s0.24-0.38,0.24-0.67v-5.18c0-0.29-0.08-0.51-0.24-0.67
			s-0.38-0.24-0.67-0.24H1.48v7H2.25z"/>
		<path class="st0" d="M8.06,249.82c-0.44-0.43-0.66-1.01-0.66-1.71v-5.35c0-0.71,0.22-1.28,0.66-1.71
			c0.44-0.43,1.01-0.65,1.72-0.65s1.28,0.22,1.72,0.65c0.44,0.43,0.66,1.01,0.66,1.71v5.35c0,0.71-0.22,1.28-0.66,1.71
			s-1.01,0.65-1.72,0.65S8.5,250.25,8.06,249.82z M10.44,248.81c0.16-0.17,0.24-0.41,0.24-0.71v-5.35c0-0.31-0.08-0.55-0.24-0.71
			s-0.38-0.25-0.66-0.25s-0.5,0.08-0.66,0.25s-0.24,0.41-0.24,0.71v5.35c0,0.31,0.08,0.55,0.24,0.71c0.16,0.17,0.38,0.25,0.66,0.25
			C10.07,249.07,10.29,248.98,10.44,248.81z"/>
		<path class="st0" d="M19.26,240.53h1.64l1.89,6.58v-6.58h1.46v9.8h-1.57l-1.96-6.27v6.27h-1.46
			C19.26,250.33,19.26,240.53,19.26,240.53z"/>
		<path class="st0" d="M27.8,249.82c-0.44-0.43-0.66-1.01-0.66-1.71v-5.35c0-0.71,0.22-1.28,0.66-1.71s1.01-0.65,1.72-0.65
			s1.28,0.22,1.72,0.65c0.44,0.43,0.66,1.01,0.66,1.71v5.35c0,0.71-0.22,1.28-0.66,1.71s-1.01,0.65-1.72,0.65
			S28.24,250.25,27.8,249.82z M30.18,248.81c0.16-0.17,0.24-0.41,0.24-0.71v-5.35c0-0.31-0.08-0.55-0.24-0.71s-0.38-0.25-0.66-0.25
			s-0.5,0.08-0.66,0.25s-0.24,0.41-0.24,0.71v5.35c0,0.31,0.08,0.55,0.24,0.71c0.16,0.17,0.38,0.25,0.66,0.25
			C29.81,249.07,30.02,248.98,30.18,248.81z"/>
		<path class="st0" d="M34.33,240.53h4.73v1.4h-1.62v8.4h-1.48v-8.4h-1.62v-1.4H34.33z"/>
		<path class="st0" d="M45.81,240.53h2.32c0.71,0,1.27,0.21,1.69,0.64s0.63,0.99,0.63,1.7v5.12c0,0.71-0.21,1.28-0.63,1.7
			s-0.98,0.64-1.69,0.64h-2.32V240.53z M48.06,248.93c0.29,0,0.51-0.08,0.67-0.24s0.24-0.38,0.24-0.67v-5.18
			c0-0.29-0.08-0.51-0.24-0.67s-0.38-0.24-0.67-0.24h-0.77v7H48.06z"/>
		<path class="st0" d="M53.34,240.53h1.48v9.8h-1.48V240.53z"/>
		<path class="st0" d="M58.66,250.16c-0.36-0.21-0.65-0.49-0.85-0.85c-0.2-0.36-0.3-0.78-0.3-1.25v-0.35l1.43-0.15v0.36
			c0,0.36,0.08,0.63,0.25,0.84s0.4,0.31,0.7,0.31c0.29,0,0.52-0.08,0.69-0.25s0.26-0.4,0.26-0.69c0-0.32-0.09-0.62-0.27-0.91
			s-0.54-0.69-1.08-1.2c-0.73-0.69-1.23-1.26-1.49-1.72c-0.27-0.46-0.4-0.96-0.4-1.5c0-0.74,0.2-1.32,0.6-1.76
			c0.4-0.43,0.95-0.65,1.65-0.65s1.25,0.22,1.65,0.66s0.6,1.03,0.6,1.76v0.25l-1.43,0.15v-0.28c0-0.37-0.07-0.66-0.21-0.85
			c-0.14-0.2-0.34-0.29-0.6-0.29s-0.46,0.08-0.6,0.24s-0.21,0.39-0.21,0.7s0.09,0.6,0.28,0.89s0.55,0.69,1.08,1.22
			c0.73,0.73,1.23,1.31,1.49,1.76c0.27,0.44,0.4,0.93,0.4,1.46c0,0.47-0.1,0.88-0.3,1.25c-0.2,0.36-0.48,0.65-0.85,0.85
			c-0.36,0.21-0.78,0.31-1.25,0.31C59.44,250.47,59.02,250.36,58.66,250.16z"/>
		<path class="st0" d="M67.88,248.16h-1.6l-0.32,2.17h-1.48l1.62-9.8h1.99l1.62,9.8H68.2L67.88,248.16z M67.69,246.73l-0.6-4.1
			l-0.6,4.1H67.69z"/>
		<path class="st0" d="M72.27,240.53h2.32c0.71,0,1.27,0.21,1.69,0.64s0.63,0.99,0.63,1.7v1.15c0,0.71-0.21,1.28-0.63,1.7
			s-0.98,0.64-1.69,0.64h-0.84v3.98h-1.48V240.53z M74.52,244.95c0.29,0,0.51-0.08,0.67-0.24c0.16-0.16,0.24-0.38,0.24-0.67v-1.2
			c0-0.29-0.08-0.51-0.24-0.67c-0.16-0.16-0.38-0.24-0.67-0.24h-0.77v3.02L74.52,244.95L74.52,244.95z"/>
		<path class="st0" d="M79.56,240.53h2.32c0.71,0,1.27,0.21,1.69,0.64s0.63,0.99,0.63,1.7v1.15c0,0.71-0.21,1.28-0.63,1.7
			s-0.98,0.64-1.69,0.64h-0.84v3.98h-1.48V240.53z M81.81,244.95c0.29,0,0.51-0.08,0.67-0.24c0.16-0.16,0.24-0.38,0.24-0.67v-1.2
			c0-0.29-0.08-0.51-0.24-0.67c-0.16-0.16-0.38-0.24-0.67-0.24h-0.77v3.02L81.81,244.95L81.81,244.95z"/>
		<path class="st0" d="M87.39,249.82c-0.44-0.43-0.66-1.01-0.66-1.71v-5.35c0-0.71,0.22-1.28,0.66-1.71s1.01-0.65,1.72-0.65
			s1.28,0.22,1.72,0.65s0.66,1.01,0.66,1.71v5.35c0,0.71-0.22,1.28-0.66,1.71s-1.01,0.65-1.72,0.65S87.83,250.25,87.39,249.82z
			 M89.77,248.81c0.16-0.17,0.24-0.41,0.24-0.71v-5.35c0-0.31-0.08-0.55-0.24-0.71s-0.38-0.25-0.66-0.25c-0.28,0-0.5,0.08-0.66,0.25
			s-0.24,0.41-0.24,0.71v5.35c0,0.31,0.08,0.55,0.24,0.71c0.16,0.17,0.38,0.25,0.66,0.25C89.39,249.07,89.61,248.98,89.77,248.81z"
			/>
		<path class="st0" d="M94.39,240.53h1.48v9.8h-1.48V240.53z"/>
		<path class="st0" d="M98.89,240.53h1.64l1.89,6.58v-6.58h1.46v9.8h-1.57l-1.96-6.27v6.27h-1.46V240.53z"/>
		<path class="st0" d="M106.43,240.53h4.73v1.4h-1.62v8.4h-1.48v-8.4h-1.62L106.43,240.53L106.43,240.53z"/>
		<path class="st0" d="M122.83,240.53l-1.99,5.7v4.1h-1.48v-4.1l-1.99-5.7h1.58l1.15,3.74l1.18-3.74H122.83z"/>
		<path class="st0" d="M125.86,249.82c-0.44-0.43-0.66-1.01-0.66-1.71v-5.35c0-0.71,0.22-1.28,0.66-1.71s1.01-0.65,1.72-0.65
			c0.71,0,1.28,0.22,1.72,0.65s0.66,1.01,0.66,1.71v5.35c0,0.71-0.22,1.28-0.66,1.71s-1.01,0.65-1.72,0.65
			S126.3,250.25,125.86,249.82z M128.24,248.81c0.16-0.17,0.24-0.41,0.24-0.71v-5.35c0-0.31-0.08-0.55-0.24-0.71
			s-0.38-0.25-0.66-0.25c-0.28,0-0.5,0.08-0.66,0.25s-0.24,0.41-0.24,0.71v5.35c0,0.31,0.08,0.55,0.24,0.71
			c0.16,0.17,0.38,0.25,0.66,0.25C127.86,249.07,128.08,248.98,128.24,248.81z"/>
		<path class="st0" d="M133.45,249.83c-0.43-0.42-0.64-0.98-0.64-1.66v-7.64h1.48v7.64c0,0.28,0.08,0.5,0.23,0.66
			s0.35,0.24,0.59,0.24s0.44-0.08,0.6-0.24c0.15-0.16,0.23-0.38,0.23-0.66v-7.64h1.46v7.64c0,0.68-0.21,1.23-0.63,1.66
			c-0.42,0.42-0.97,0.64-1.65,0.64S133.88,250.25,133.45,249.83z"/>
		<path class="st0" d="M143.69,250.33l-1.08-4.05h-0.77v4.05h-1.48v-9.8h2.32c0.71,0,1.27,0.21,1.69,0.64s0.63,0.99,0.63,1.7v1.08
			c0,0.45-0.09,0.84-0.27,1.19c-0.18,0.35-0.43,0.62-0.76,0.81l1.25,4.38L143.69,250.33L143.69,250.33z M141.85,244.88h0.77
			c0.29,0,0.51-0.08,0.67-0.24s0.24-0.38,0.24-0.67v-1.13c0-0.29-0.08-0.51-0.24-0.67s-0.38-0.24-0.67-0.24h-0.77V244.88z"/>
		<path class="st0" d="M148.66,250.16c-0.36-0.21-0.65-0.49-0.85-0.85c-0.2-0.36-0.3-0.78-0.3-1.25v-0.35l1.43-0.15v0.36
			c0,0.36,0.08,0.63,0.25,0.84s0.4,0.31,0.7,0.31c0.29,0,0.52-0.08,0.69-0.25s0.26-0.4,0.26-0.69c0-0.32-0.09-0.62-0.27-0.91
			c-0.18-0.29-0.54-0.69-1.08-1.2c-0.73-0.69-1.23-1.26-1.49-1.72c-0.27-0.46-0.4-0.96-0.4-1.5c0-0.74,0.2-1.32,0.6-1.76
			c0.4-0.43,0.95-0.65,1.65-0.65s1.25,0.22,1.65,0.66s0.6,1.03,0.6,1.76v0.25l-1.43,0.15v-0.28c0-0.37-0.07-0.66-0.21-0.85
			c-0.14-0.2-0.34-0.29-0.6-0.29c-0.26,0-0.46,0.08-0.6,0.24s-0.21,0.39-0.21,0.7s0.09,0.6,0.28,0.89s0.55,0.69,1.08,1.22
			c0.73,0.73,1.23,1.31,1.49,1.76c0.27,0.44,0.4,0.93,0.4,1.46c0,0.47-0.1,0.88-0.3,1.25c-0.2,0.36-0.48,0.65-0.85,0.85
			c-0.36,0.21-0.78,0.31-1.25,0.31C149.44,250.47,149.03,250.36,148.66,250.16z"/>
		<path class="st0" d="M154.96,240.53h4.21v1.4h-2.73v2.73h2.17v1.4h-2.17v2.87h2.73v1.4h-4.21V240.53z"/>
		<path class="st0" d="M161.82,240.53h1.48v8.4h2.65v1.4h-4.13L161.82,240.53L161.82,240.53z"/>
		<path class="st0" d="M168.5,240.53h4.14v1.4h-2.66v2.87h2.1v1.4h-2.1v4.13h-1.48V240.53z"/>
		<path class="st0" d="M186.66,240.53l-1.44,9.8h-1.64l-0.78-6.45l-0.78,6.45h-1.64l-1.44-9.8h1.5l0.81,6.62l0.81-6.62h1.51
			l0.81,6.62l0.81-6.62H186.66z"/>
		<path class="st0" d="M189.22,240.53h1.48v9.8h-1.48V240.53z"/>
		<path class="st0" d="M193.25,240.53h4.73v1.4h-1.62v8.4h-1.48v-8.4h-1.62v-1.4H193.25z"/>
		<path class="st0" d="M200.53,250.33v-9.8h1.48v4.13h1.76v-4.13h1.48v9.8h-1.48v-4.27h-1.76v4.27H200.53z"/>
		<path class="st0" d="M212.49,240.53h1.64l1.89,6.58v-6.58h1.46v9.8h-1.57l-1.96-6.27v6.27h-1.46L212.49,240.53L212.49,240.53z"/>
		<path class="st0" d="M220.5,240.53h4.21v1.4h-2.73v2.73h2.17v1.4h-2.17v2.87h2.73v1.4h-4.21V240.53z"/>
		<path class="st0" d="M230.51,243.58v-0.83c0-0.31-0.08-0.55-0.24-0.71c-0.16-0.17-0.38-0.25-0.66-0.25s-0.5,0.08-0.66,0.25
			s-0.24,0.41-0.24,0.71v5.35c0,0.31,0.08,0.55,0.24,0.71c0.16,0.17,0.38,0.25,0.66,0.25s0.5-0.08,0.66-0.25s0.24-0.41,0.24-0.71
			v-1.74h-0.9v-1.4h2.38v3.14c0,0.71-0.22,1.28-0.66,1.71s-1.01,0.65-1.72,0.65s-1.28-0.22-1.72-0.65s-0.66-1.01-0.66-1.71v-5.35
			c0-0.71,0.22-1.28,0.66-1.71s1.01-0.65,1.72-0.65s1.28,0.22,1.72,0.65s0.66,1.01,0.66,1.71v0.83L230.51,243.58L230.51,243.58z"/>
		<path class="st0" d="M237.76,248.16h-1.6l-0.32,2.17h-1.48l1.62-9.8h1.99l1.62,9.8h-1.51L237.76,248.16z M237.56,246.73l-0.6-4.1
			l-0.6,4.1H237.56z"/>
		<path class="st0" d="M241.66,240.53h4.73v1.4h-1.62v8.4h-1.48v-8.4h-1.62v-1.4H241.66z"/>
		<path class="st0" d="M248.94,240.53h1.48v9.8h-1.48V240.53z"/>
		<path class="st0" d="M258.21,240.53l-1.62,9.8h-1.99l-1.62-9.8h1.51l1.12,7.7l1.12-7.7H258.21z"/>
		<path class="st0" d="M260.76,240.53h4.21v1.4h-2.73v2.73h2.17v1.4h-2.17v2.87h2.73v1.4h-4.21V240.53z"/>
		<path class="st0" d="M271.34,240.53h4.73v1.4h-1.62v8.4h-1.48v-8.4h-1.62v-1.4H271.34z"/>
		<path class="st0" d="M278.62,250.33v-9.8h1.48v4.13h1.76v-4.13h1.48v9.8h-1.48v-4.27h-1.76v4.27H278.62z"/>
		<path class="st0" d="M286.91,249.82c-0.44-0.43-0.66-1.01-0.66-1.71v-5.35c0-0.71,0.22-1.28,0.66-1.71s1.01-0.65,1.72-0.65
			s1.28,0.22,1.72,0.65s0.66,1.01,0.66,1.71v5.35c0,0.71-0.22,1.28-0.66,1.71s-1.01,0.65-1.72,0.65S287.35,250.25,286.91,249.82z
			 M289.29,248.81c0.16-0.17,0.24-0.41,0.24-0.71v-5.35c0-0.31-0.08-0.55-0.24-0.71c-0.16-0.17-0.38-0.25-0.66-0.25
			s-0.5,0.08-0.66,0.25s-0.24,0.41-0.24,0.71v5.35c0,0.31,0.08,0.55,0.24,0.71c0.16,0.17,0.38,0.25,0.66,0.25
			C288.91,249.07,289.13,248.98,289.29,248.81z"/>
		<path class="st0" d="M294.5,249.83c-0.43-0.42-0.64-0.98-0.64-1.66v-7.64h1.48v7.64c0,0.28,0.08,0.5,0.23,0.66
			c0.15,0.16,0.35,0.24,0.59,0.24s0.44-0.08,0.59-0.24s0.23-0.38,0.23-0.66v-7.64h1.46v7.64c0,0.68-0.21,1.23-0.63,1.66
			c-0.42,0.42-0.97,0.64-1.65,0.64C295.48,250.47,294.93,250.25,294.5,249.83z"/>
		<path class="st0" d="M304.56,243.58v-0.83c0-0.31-0.08-0.55-0.24-0.71c-0.16-0.17-0.38-0.25-0.66-0.25s-0.5,0.08-0.66,0.25
			s-0.24,0.41-0.24,0.71v5.35c0,0.31,0.08,0.55,0.24,0.71c0.16,0.17,0.38,0.25,0.66,0.25s0.5-0.08,0.66-0.25s0.24-0.41,0.24-0.71
			v-1.74h-0.9v-1.4h2.38v3.14c0,0.71-0.22,1.28-0.66,1.71s-1.01,0.65-1.72,0.65s-1.28-0.22-1.72-0.65s-0.66-1.01-0.66-1.71v-5.35
			c0-0.71,0.22-1.28,0.66-1.71s1.01-0.65,1.72-0.65s1.28,0.22,1.72,0.65s0.66,1.01,0.66,1.71v0.83L304.56,243.58L304.56,243.58z"/>
		<path class="st0" d="M308.89,250.33v-9.8h1.48v4.13h1.76v-4.13h1.48v9.8h-1.48v-4.27h-1.76v4.27H308.89z"/>
		<path class="st0" d="M316.17,240.53h4.73v1.4h-1.62v8.4h-1.48v-8.4h-1.62v-1.4H316.17z"/>
		<path class="st0" d="M324.26,250.16c-0.36-0.21-0.65-0.49-0.85-0.85c-0.2-0.36-0.3-0.78-0.3-1.25v-0.35l1.43-0.15v0.36
			c0,0.36,0.08,0.63,0.25,0.84s0.4,0.31,0.7,0.31c0.29,0,0.52-0.08,0.69-0.25s0.26-0.4,0.26-0.69c0-0.32-0.09-0.62-0.27-0.91
			s-0.54-0.69-1.08-1.2c-0.73-0.69-1.23-1.26-1.49-1.72c-0.27-0.46-0.4-0.96-0.4-1.5c0-0.74,0.2-1.32,0.6-1.76
			c0.4-0.43,0.95-0.65,1.65-0.65s1.25,0.22,1.65,0.66s0.6,1.03,0.6,1.76v0.25l-1.43,0.15v-0.28c0-0.37-0.07-0.66-0.21-0.85
			s-0.34-0.29-0.6-0.29s-0.46,0.08-0.6,0.24s-0.21,0.39-0.21,0.7s0.09,0.6,0.28,0.89s0.55,0.69,1.08,1.22
			c0.73,0.73,1.22,1.31,1.49,1.76c0.27,0.44,0.4,0.93,0.4,1.46c0,0.47-0.1,0.88-0.3,1.25c-0.2,0.36-0.48,0.65-0.85,0.85
			c-0.36,0.21-0.78,0.31-1.25,0.31C325.04,250.47,324.63,250.36,324.26,250.16z"/>
		<path class="st0" d="M330.66,248.86h1.48v1.47h-1.48V248.86z"/>
		<path class="st0" d="M0,259.47h1.48v8.4h2.65v1.4H0V259.47z"/>
		<path class="st0" d="M6.68,259.47h4.21v1.4H8.16v2.73h2.17v1.4H8.16v2.87h2.73v1.4H6.68V259.47z"/>
		<path class="st0" d="M13.06,259.47h4.73v1.4h-1.62v8.4h-1.48v-8.4h-1.62v-1.4H13.06z"/>
		<path class="st0" d="M20.97,260.94h-0.53v-1.47h1.48v1.33l-0.78,1.61h-0.7L20.97,260.94z"/>
		<path class="st0" d="M32.86,269.1c-0.36-0.21-0.65-0.49-0.85-0.85c-0.2-0.36-0.3-0.78-0.3-1.25v-0.35l1.43-0.15v0.36
			c0,0.36,0.08,0.63,0.25,0.84s0.4,0.31,0.7,0.31c0.29,0,0.52-0.08,0.69-0.25s0.26-0.4,0.26-0.69c0-0.32-0.09-0.62-0.27-0.91
			s-0.54-0.69-1.08-1.2c-0.73-0.69-1.23-1.26-1.49-1.72c-0.27-0.46-0.4-0.96-0.4-1.5c0-0.74,0.2-1.32,0.6-1.76
			c0.4-0.43,0.95-0.65,1.65-0.65s1.25,0.22,1.65,0.66s0.6,1.03,0.6,1.76V262l-1.43,0.15v-0.28c0-0.37-0.07-0.66-0.21-0.85
			c-0.14-0.2-0.34-0.29-0.6-0.29s-0.46,0.08-0.6,0.24s-0.21,0.39-0.21,0.7s0.09,0.6,0.28,0.89s0.55,0.69,1.08,1.22
			c0.73,0.73,1.23,1.31,1.49,1.76c0.27,0.44,0.4,0.93,0.4,1.46c0,0.47-0.1,0.88-0.3,1.25c-0.2,0.36-0.48,0.65-0.85,0.85
			c-0.36,0.21-0.78,0.31-1.25,0.31C33.64,269.41,33.22,269.3,32.86,269.1z"/>
		<path class="st0" d="M43.36,259.47H45l1.89,6.58v-6.58h1.46v9.8h-1.57L44.82,263v6.27h-1.46V259.47z"/>
		<path class="st0" d="M51.9,268.75c-0.44-0.43-0.66-1.01-0.66-1.71v-5.35c0-0.71,0.22-1.28,0.66-1.71s1.01-0.65,1.72-0.65
			s1.28,0.22,1.72,0.65c0.44,0.43,0.66,1.01,0.66,1.71v5.35c0,0.71-0.22,1.28-0.66,1.71s-1.01,0.65-1.72,0.65
			S52.34,269.19,51.9,268.75z M54.28,267.75c0.16-0.17,0.24-0.41,0.24-0.71v-5.35c0-0.31-0.08-0.55-0.24-0.71s-0.38-0.25-0.66-0.25
			c-0.28,0-0.5,0.08-0.66,0.25s-0.24,0.41-0.24,0.71v5.35c0,0.31,0.08,0.55,0.24,0.71c0.16,0.17,0.38,0.25,0.66,0.25
			C53.9,268.01,54.12,267.92,54.28,267.75z"/>
		<path class="st0" d="M58.42,259.47h4.73v1.4h-1.62v8.4h-1.48v-8.4h-1.62v-1.4H58.42z"/>
		<path class="st0" d="M69.9,259.47h1.48v8.4h2.65v1.4H69.9V259.47z"/>
		<path class="st0" d="M76.58,259.47h1.48v9.8h-1.48V259.47z"/>
		<path class="st0" d="M85.85,259.47l-1.62,9.8h-1.99l-1.62-9.8h1.51l1.12,7.7l1.12-7.7H85.85z"/>
		<path class="st0" d="M88.39,259.47h4.21v1.4h-2.73v2.73h2.17v1.4h-2.17v2.87h2.73v1.4h-4.21V259.47z"/>
		<path class="st0" d="M98.98,259.47h4.73v1.4h-1.62v8.4h-1.48v-8.4h-1.62L98.98,259.47L98.98,259.47z"/>
		<path class="st0" d="M106.79,268.75c-0.44-0.43-0.66-1.01-0.66-1.71v-5.35c0-0.71,0.22-1.28,0.66-1.71s1.01-0.65,1.72-0.65
			s1.28,0.22,1.72,0.65s0.66,1.01,0.66,1.71v5.35c0,0.71-0.22,1.28-0.66,1.71s-1.01,0.65-1.72,0.65S107.23,269.19,106.79,268.75z
			 M109.17,267.75c0.16-0.17,0.24-0.41,0.24-0.71v-5.35c0-0.31-0.08-0.55-0.24-0.71s-0.38-0.25-0.66-0.25
			c-0.28,0-0.5,0.08-0.66,0.25s-0.24,0.41-0.24,0.71v5.35c0,0.31,0.08,0.55,0.24,0.71c0.16,0.17,0.38,0.25,0.66,0.25
			C108.79,268.01,109.01,267.92,109.17,267.75z"/>
		<path class="st0" d="M113.79,259.47h2.32c0.71,0,1.27,0.21,1.69,0.64s0.63,0.99,0.63,1.7v5.12c0,0.71-0.21,1.28-0.63,1.7
			s-0.98,0.64-1.69,0.64h-2.32V259.47z M116.04,267.88c0.29,0,0.51-0.08,0.67-0.24c0.16-0.16,0.24-0.38,0.24-0.67v-5.18
			c0-0.29-0.08-0.51-0.24-0.67c-0.16-0.16-0.38-0.24-0.67-0.24h-0.77v7H116.04z"/>
		<path class="st0" d="M124.25,267.1h-1.6l-0.32,2.17h-1.48l1.62-9.8h1.99l1.62,9.8h-1.51L124.25,267.1z M124.05,265.67l-0.6-4.1
			l-0.6,4.1H124.05z"/>
		<path class="st0" d="M133.56,259.47l-1.99,5.7v4.1h-1.48v-4.1l-1.99-5.7h1.58l1.15,3.74l1.18-3.74H133.56z"/>
		<path class="st0" d="M144.76,264.94c0.19,0.33,0.29,0.72,0.29,1.19v0.8c0,0.71-0.21,1.28-0.63,1.7s-0.98,0.64-1.69,0.64h-2.48
			v-9.8h2.35c0.71,0,1.27,0.21,1.69,0.64s0.63,0.99,0.63,1.7v0.52c0,0.88-0.33,1.5-0.99,1.88
			C144.29,264.38,144.57,264.61,144.76,264.94z M141.73,260.88v2.66h0.66c0.35,0,0.62-0.09,0.79-0.26s0.26-0.44,0.26-0.79v-0.7
			c0-0.29-0.08-0.51-0.24-0.67s-0.38-0.24-0.67-0.24L141.73,260.88L141.73,260.88z M143.57,265.98c0-0.35-0.09-0.62-0.26-0.79
			s-0.44-0.26-0.79-0.26h-0.78v2.94h0.92c0.29,0,0.51-0.08,0.67-0.24s0.24-0.38,0.24-0.67L143.57,265.98L143.57,265.98z"/>
		<path class="st0" d="M148.38,268.77c-0.43-0.42-0.64-0.98-0.64-1.66v-7.64h1.48v7.64c0,0.28,0.08,0.5,0.23,0.66
			s0.35,0.24,0.59,0.24s0.44-0.08,0.6-0.24c0.15-0.16,0.23-0.38,0.23-0.66v-7.64h1.46v7.64c0,0.68-0.21,1.23-0.63,1.66
			c-0.42,0.42-0.97,0.64-1.65,0.64S148.81,269.19,148.38,268.77z"/>
		<path class="st0" d="M154.82,259.47h4.73v1.4h-1.62v8.4h-1.48v-8.4h-1.62v-1.4H154.82z"/>
		<path class="st0" d="M166.3,259.47h4.21v1.4h-2.73v2.73h2.17v1.4h-2.17v2.87h2.73v1.4h-4.21V259.47z"/>
		<path class="st0" d="M176.65,269.27l-1.26-3.42l-1.19,3.42h-1.54l1.95-5.07l-1.82-4.73h1.6l1.16,3.14l1.09-3.14h1.54l-1.85,4.8
			l1.92,5L176.65,269.27L176.65,269.27z"/>
		<path class="st0" d="M180.76,259.47h2.32c0.71,0,1.27,0.21,1.69,0.64s0.63,0.99,0.63,1.7v1.15c0,0.71-0.21,1.28-0.63,1.7
			s-0.98,0.64-1.69,0.64h-0.84v3.98h-1.48L180.76,259.47L180.76,259.47z M183.02,263.89c0.29,0,0.51-0.08,0.67-0.24
			s0.24-0.38,0.24-0.67v-1.2c0-0.29-0.08-0.51-0.24-0.67s-0.38-0.24-0.67-0.24h-0.77v3.02L183.02,263.89L183.02,263.89z"/>
		<path class="st0" d="M188.06,259.47h4.21v1.4h-2.73v2.73h2.17v1.4h-2.17v2.87h2.73v1.4h-4.21V259.47z"/>
		<path class="st0" d="M195.44,268.76c-0.43-0.43-0.64-0.99-0.64-1.68v-5.43c0-0.69,0.21-1.25,0.64-1.68s0.99-0.64,1.68-0.64
			c0.69,0,1.25,0.21,1.68,0.64s0.64,0.99,0.64,1.68v1.15h-1.46v-1.15c0-0.28-0.08-0.5-0.24-0.67s-0.36-0.25-0.62-0.25
			s-0.46,0.08-0.62,0.25c-0.16,0.17-0.24,0.39-0.24,0.67v5.43c0,0.28,0.08,0.5,0.24,0.67s0.36,0.25,0.62,0.25s0.46-0.08,0.62-0.25
			c0.16-0.17,0.24-0.39,0.24-0.67v-1.4h1.46v1.4c0,0.69-0.21,1.25-0.64,1.68s-0.99,0.64-1.68,0.64
			C196.43,269.41,195.87,269.19,195.44,268.76z"/>
		<path class="st0" d="M201.72,259.47h4.73v1.4h-1.62v8.4h-1.48v-8.4h-1.62v-1.4H201.72z"/>
		<path class="st0" d="M212.73,259.47h4.73v1.4h-1.62v8.4h-1.48v-8.4h-1.62v-1.4H212.73z"/>
		<path class="st0" d="M220.54,268.75c-0.44-0.43-0.66-1.01-0.66-1.71v-5.35c0-0.71,0.22-1.28,0.66-1.71s1.01-0.65,1.72-0.65
			s1.28,0.22,1.72,0.65s0.66,1.01,0.66,1.71v5.35c0,0.71-0.22,1.28-0.66,1.71s-1.01,0.65-1.72,0.65
			C221.55,269.41,220.98,269.19,220.54,268.75z M222.92,267.75c0.16-0.17,0.24-0.41,0.24-0.71v-5.35c0-0.31-0.08-0.55-0.24-0.71
			c-0.16-0.17-0.38-0.25-0.66-0.25s-0.5,0.08-0.66,0.25s-0.24,0.41-0.24,0.71v5.35c0,0.31,0.08,0.55,0.24,0.71
			c0.16,0.17,0.38,0.25,0.66,0.25S222.76,267.92,222.92,267.75z"/>
		<path class="st0" d="M234.29,259.47v9.8h-1.48v-6.72l-1.39,6.72h-1.04l-1.39-6.72v6.72h-1.46v-9.8h2.1l1.29,6.26l1.23-6.26H234.29
			z"/>
		<path class="st0" d="M237.84,268.75c-0.44-0.43-0.66-1.01-0.66-1.71v-5.35c0-0.71,0.22-1.28,0.66-1.71s1.01-0.65,1.72-0.65
			s1.28,0.22,1.72,0.65s0.66,1.01,0.66,1.71v5.35c0,0.71-0.22,1.28-0.66,1.71s-1.01,0.65-1.72,0.65
			C238.85,269.41,238.28,269.19,237.84,268.75z M240.22,267.75c0.16-0.17,0.24-0.41,0.24-0.71v-5.35c0-0.31-0.08-0.55-0.24-0.71
			c-0.16-0.17-0.38-0.25-0.66-0.25s-0.5,0.08-0.66,0.25s-0.24,0.41-0.24,0.71v5.35c0,0.31,0.08,0.55,0.24,0.71
			c0.16,0.17,0.38,0.25,0.66,0.25S240.06,267.92,240.22,267.75z"/>
		<path class="st0" d="M248.17,269.27l-1.08-4.05h-0.77v4.05h-1.48v-9.8h2.32c0.71,0,1.27,0.21,1.69,0.64s0.63,0.99,0.63,1.7v1.08
			c0,0.45-0.09,0.84-0.27,1.19c-0.18,0.35-0.43,0.62-0.76,0.81l1.25,4.38L248.17,269.27L248.17,269.27z M246.33,263.82h0.77
			c0.29,0,0.51-0.08,0.67-0.24s0.24-0.38,0.24-0.67v-1.13c0-0.29-0.08-0.51-0.24-0.67s-0.38-0.24-0.67-0.24h-0.77V263.82z"/>
		<path class="st0" d="M255.66,269.27l-1.08-4.05h-0.77v4.05h-1.48v-9.8h2.32c0.71,0,1.27,0.21,1.69,0.64s0.63,0.99,0.63,1.7v1.08
			c0,0.45-0.09,0.84-0.27,1.19s-0.43,0.62-0.76,0.81l1.25,4.38L255.66,269.27L255.66,269.27z M253.81,263.82h0.77
			c0.29,0,0.51-0.08,0.67-0.24s0.24-0.38,0.24-0.67v-1.13c0-0.29-0.08-0.51-0.24-0.67s-0.38-0.24-0.67-0.24h-0.77V263.82z"/>
		<path class="st0" d="M260.35,268.75c-0.44-0.43-0.66-1.01-0.66-1.71v-5.35c0-0.71,0.22-1.28,0.66-1.71s1.01-0.65,1.72-0.65
			s1.28,0.22,1.72,0.65s0.66,1.01,0.66,1.71v5.35c0,0.71-0.22,1.28-0.66,1.71s-1.01,0.65-1.72,0.65
			C261.37,269.41,260.79,269.19,260.35,268.75z M262.73,267.75c0.16-0.17,0.24-0.41,0.24-0.71v-5.35c0-0.31-0.08-0.55-0.24-0.71
			c-0.16-0.17-0.38-0.25-0.66-0.25s-0.5,0.08-0.66,0.25s-0.24,0.41-0.24,0.71v5.35c0,0.31,0.08,0.55,0.24,0.71
			c0.16,0.17,0.38,0.25,0.66,0.25S262.57,267.92,262.73,267.75z"/>
		<path class="st0" d="M274.62,259.47l-1.44,9.8h-1.64l-0.78-6.45l-0.78,6.45h-1.64l-1.44-9.8h1.5l0.81,6.62l0.81-6.62h1.51
			l0.81,6.62l0.81-6.62H274.62z"/>
		<path class="st0" d="M277.28,267.8h1.48v1.47h-1.48V267.8z"/>
		<path class="st0" d="M0,278.41h4.14v1.4H1.48v2.87h2.1v1.4h-2.1v4.13H0V278.41z"/>
		<path class="st0" d="M7.22,287.7c-0.44-0.43-0.66-1.01-0.66-1.71v-5.35c0-0.71,0.22-1.28,0.66-1.71s1.01-0.65,1.72-0.65
			s1.28,0.22,1.72,0.65c0.44,0.43,0.66,1.01,0.66,1.71v5.35c0,0.71-0.22,1.28-0.66,1.71s-1.01,0.65-1.72,0.65
			S7.66,288.13,7.22,287.7z M9.6,286.69c0.16-0.17,0.24-0.41,0.24-0.71v-5.35c0-0.31-0.08-0.55-0.24-0.71s-0.38-0.25-0.66-0.25
			s-0.5,0.08-0.66,0.25s-0.24,0.41-0.24,0.71v5.35c0,0.31,0.08,0.55,0.24,0.71c0.16,0.17,0.38,0.25,0.66,0.25
			C9.23,286.95,9.45,286.86,9.6,286.69z"/>
		<path class="st0" d="M15.04,288.04c-0.36-0.21-0.65-0.49-0.85-0.85c-0.2-0.36-0.3-0.78-0.3-1.25v-0.35l1.43-0.15v0.36
			c0,0.36,0.08,0.63,0.25,0.84s0.4,0.31,0.7,0.31c0.29,0,0.52-0.08,0.69-0.25s0.26-0.4,0.26-0.69c0-0.32-0.09-0.62-0.27-0.91
			s-0.54-0.69-1.08-1.2c-0.73-0.69-1.23-1.26-1.49-1.72c-0.27-0.46-0.4-0.96-0.4-1.5c0-0.74,0.2-1.32,0.6-1.76
			c0.4-0.43,0.95-0.65,1.65-0.65c0.7,0,1.25,0.22,1.65,0.66s0.6,1.03,0.6,1.76v0.25l-1.43,0.15v-0.28c0-0.37-0.07-0.66-0.21-0.85
			c-0.14-0.2-0.34-0.29-0.6-0.29s-0.46,0.08-0.6,0.24s-0.21,0.39-0.21,0.7s0.09,0.6,0.28,0.89s0.55,0.69,1.08,1.22
			c0.73,0.73,1.23,1.31,1.49,1.76c0.27,0.44,0.4,0.93,0.4,1.46c0,0.47-0.1,0.88-0.3,1.25c-0.2,0.36-0.48,0.65-0.85,0.85
			c-0.36,0.21-0.78,0.31-1.25,0.31C15.81,288.35,15.4,288.24,15.04,288.04z"/>
		<path class="st0" d="M20.86,278.41h4.73v1.4h-1.62v8.4h-1.48v-8.4h-1.62L20.86,278.41L20.86,278.41z"/>
		<path class="st0" d="M28.14,278.41h4.21v1.4h-2.73v2.73h2.17v1.4h-2.17v2.87h2.73v1.4h-4.21V278.41z"/>
		<path class="st0" d="M38.33,288.21l-1.08-4.05h-0.77v4.05H35v-9.8h2.32c0.71,0,1.27,0.21,1.69,0.64s0.63,0.99,0.63,1.7v1.08
			c0,0.45-0.09,0.84-0.27,1.19s-0.43,0.62-0.76,0.81l1.25,4.38L38.33,288.21L38.33,288.21z M36.48,282.76h0.77
			c0.29,0,0.51-0.08,0.67-0.24s0.24-0.38,0.24-0.67v-1.13c0-0.29-0.08-0.51-0.24-0.67s-0.38-0.24-0.67-0.24h-0.77V282.76z"/>
		<path class="st0" d="M49.61,286.04h-1.6l-0.32,2.17h-1.48l1.62-9.8h1.99l1.62,9.8h-1.51L49.61,286.04z M49.42,284.61l-0.6-4.1
			l-0.6,4.1H49.42z"/>
		<path class="st0" d="M58.2,288.21v-9.8h1.48v4.13h1.76v-4.13h1.48v9.8h-1.48v-4.27h-1.76v4.27H58.2z"/>
		<path class="st0" d="M68.88,286.04h-1.6l-0.32,2.17h-1.48l1.62-9.8h1.99l1.62,9.8H69.2L68.88,286.04z M68.68,284.61l-0.6-4.1
			l-0.6,4.1H68.68z"/>
		<path class="st0" d="M77.78,283.88c0.19,0.33,0.29,0.72,0.29,1.19v0.8c0,0.71-0.21,1.28-0.63,1.7s-0.98,0.64-1.69,0.64h-2.48v-9.8
			h2.35c0.71,0,1.27,0.21,1.69,0.64s0.63,0.99,0.63,1.7v0.52c0,0.88-0.33,1.5-0.99,1.88C77.31,283.31,77.58,283.55,77.78,283.88z
			 M74.74,279.81v2.66h0.66c0.35,0,0.62-0.09,0.79-0.26s0.26-0.44,0.26-0.79v-0.7c0-0.29-0.08-0.51-0.24-0.67
			c-0.16-0.16-0.38-0.24-0.67-0.24L74.74,279.81L74.74,279.81z M76.58,284.92c0-0.35-0.09-0.62-0.26-0.79
			c-0.17-0.17-0.44-0.26-0.79-0.26h-0.78v2.94h0.92c0.29,0,0.51-0.08,0.67-0.24c0.16-0.16,0.24-0.38,0.24-0.67
			C76.58,285.9,76.58,284.92,76.58,284.92z"/>
		<path class="st0" d="M80.81,278.41h1.48v9.8h-1.48V278.41z"/>
		<path class="st0" d="M84.84,278.41h4.73v1.4h-1.62v8.4h-1.48v-8.4h-1.62L84.84,278.41L84.84,278.41z"/>
		<path class="st0" d="M96.85,287.7c-0.44-0.43-0.66-1.01-0.66-1.71v-5.35c0-0.71,0.22-1.28,0.66-1.71s1.01-0.65,1.72-0.65
			s1.28,0.22,1.72,0.65s0.66,1.01,0.66,1.71v5.35c0,0.71-0.22,1.28-0.66,1.71s-1.01,0.65-1.72,0.65S97.29,288.13,96.85,287.7z
			 M99.23,286.69c0.16-0.17,0.24-0.41,0.24-0.71v-5.35c0-0.31-0.08-0.55-0.24-0.71s-0.38-0.25-0.66-0.25c-0.28,0-0.5,0.08-0.66,0.25
			s-0.24,0.41-0.24,0.71v5.35c0,0.31,0.08,0.55,0.24,0.71c0.16,0.17,0.38,0.25,0.66,0.25C98.85,286.95,99.07,286.86,99.23,286.69z"
			/>
		<path class="st0" d="M103.85,278.41h4.14v1.4h-2.66v2.87h2.1v1.4h-2.1v4.13h-1.48C103.85,288.21,103.85,278.41,103.85,278.41z"/>
		<path class="st0" d="M114.74,278.41h2.32c0.71,0,1.27,0.21,1.69,0.64s0.63,0.99,0.63,1.7v5.12c0,0.71-0.21,1.28-0.63,1.7
			s-0.98,0.64-1.69,0.64h-2.32V278.41z M117,286.81c0.29,0,0.51-0.08,0.67-0.24c0.16-0.16,0.24-0.38,0.24-0.67v-5.18
			c0-0.29-0.08-0.51-0.24-0.67c-0.16-0.16-0.38-0.24-0.67-0.24h-0.77v7H117z"/>
		<path class="st0" d="M125.61,288.21l-1.08-4.05h-0.77v4.05h-1.48v-9.8h2.32c0.71,0,1.27,0.21,1.69,0.64s0.63,0.99,0.63,1.7v1.08
			c0,0.45-0.09,0.84-0.27,1.19s-0.43,0.62-0.76,0.81l1.25,4.38L125.61,288.21L125.61,288.21z M123.76,282.76h0.77
			c0.29,0,0.51-0.08,0.67-0.24c0.16-0.16,0.24-0.38,0.24-0.67v-1.13c0-0.29-0.08-0.51-0.24-0.67c-0.16-0.16-0.38-0.24-0.67-0.24
			h-0.77V282.76z"/>
		<path class="st0" d="M129.76,278.41h1.48v9.8h-1.48V278.41z"/>
		<path class="st0" d="M139.03,278.41l-1.62,9.8h-1.99l-1.62-9.8h1.51l1.12,7.7l1.12-7.7H139.03z"/>
		<path class="st0" d="M141.58,278.41h1.48v9.8h-1.48V278.41z"/>
		<path class="st0" d="M146.09,278.41h1.64l1.89,6.58v-6.58h1.46v9.8h-1.57l-1.96-6.27v6.27h-1.46L146.09,278.41L146.09,278.41z"/>
		<path class="st0" d="M157.25,281.46v-0.83c0-0.31-0.08-0.55-0.24-0.71s-0.38-0.25-0.66-0.25s-0.5,0.08-0.66,0.25
			s-0.24,0.41-0.24,0.71v5.35c0,0.31,0.08,0.55,0.24,0.71c0.16,0.17,0.38,0.25,0.66,0.25s0.5-0.08,0.66-0.25s0.24-0.41,0.24-0.71
			v-1.74h-0.9v-1.4h2.38v3.14c0,0.71-0.22,1.28-0.66,1.71s-1.01,0.65-1.72,0.65s-1.28-0.22-1.72-0.65s-0.66-1.01-0.66-1.71v-5.35
			c0-0.71,0.22-1.28,0.66-1.71s1.01-0.65,1.72-0.65s1.28,0.22,1.72,0.65s0.66,1.01,0.66,1.71v0.83L157.25,281.46L157.25,281.46z"/>
		<path class="st0" d="M170.7,278.41l-1.99,5.7v4.1h-1.48v-4.1l-1.99-5.7h1.58l1.15,3.74l1.18-3.74H170.7z"/>
		<path class="st0" d="M173.72,287.7c-0.44-0.43-0.66-1.01-0.66-1.71v-5.35c0-0.71,0.22-1.28,0.66-1.71s1.01-0.65,1.72-0.65
			s1.28,0.22,1.72,0.65s0.66,1.01,0.66,1.71v5.35c0,0.71-0.22,1.28-0.66,1.71s-1.01,0.65-1.72,0.65S174.16,288.13,173.72,287.7z
			 M176.1,286.69c0.16-0.17,0.24-0.41,0.24-0.71v-5.35c0-0.31-0.08-0.55-0.24-0.71s-0.38-0.25-0.66-0.25s-0.5,0.08-0.66,0.25
			s-0.24,0.41-0.24,0.71v5.35c0,0.31,0.08,0.55,0.24,0.71c0.16,0.17,0.38,0.25,0.66,0.25C175.73,286.95,175.94,286.86,176.1,286.69z
			"/>
		<path class="st0" d="M181.31,287.71c-0.43-0.42-0.64-0.98-0.64-1.66v-7.64h1.48v7.64c0,0.28,0.08,0.5,0.23,0.66
			s0.35,0.24,0.59,0.24s0.44-0.08,0.6-0.24c0.15-0.16,0.23-0.38,0.23-0.66v-7.64h1.46v7.64c0,0.68-0.21,1.23-0.63,1.66
			c-0.42,0.42-0.97,0.64-1.65,0.64S181.74,288.13,181.31,287.71z"/>
		<path class="st0" d="M191.95,278.41h4.73v1.4h-1.62v8.4h-1.48v-8.4h-1.62v-1.4H191.95z"/>
		<path class="st0" d="M199.76,287.7c-0.44-0.43-0.66-1.01-0.66-1.71v-5.35c0-0.71,0.22-1.28,0.66-1.71s1.01-0.65,1.72-0.65
			s1.28,0.22,1.72,0.65s0.66,1.01,0.66,1.71v5.35c0,0.71-0.22,1.28-0.66,1.71s-1.01,0.65-1.72,0.65S200.2,288.13,199.76,287.7z
			 M202.14,286.69c0.16-0.17,0.24-0.41,0.24-0.71v-5.35c0-0.31-0.08-0.55-0.24-0.71s-0.38-0.25-0.66-0.25s-0.5,0.08-0.66,0.25
			s-0.24,0.41-0.24,0.71v5.35c0,0.31,0.08,0.55,0.24,0.71c0.16,0.17,0.38,0.25,0.66,0.25C201.76,286.95,201.98,286.86,202.14,286.69
			z"/>
		<path class="st0" d="M214.03,278.41l-1.44,9.8h-1.64l-0.78-6.45l-0.78,6.45h-1.64l-1.44-9.8h1.5l0.81,6.62l0.81-6.62h1.51
			l0.81,6.62l0.81-6.62H214.03z"/>
		<path class="st0" d="M219.52,286.04h-1.6l-0.32,2.17h-1.48l1.62-9.8h1.99l1.62,9.8h-1.51L219.52,286.04z M219.32,284.61l-0.6-4.1
			l-0.6,4.1H219.32z"/>
		<path class="st0" d="M227.23,288.21l-1.08-4.05h-0.77v4.05h-1.48v-9.8h2.32c0.71,0,1.27,0.21,1.69,0.64s0.63,0.99,0.63,1.7v1.08
			c0,0.45-0.09,0.84-0.27,1.19c-0.18,0.35-0.43,0.62-0.76,0.81l1.25,4.38L227.23,288.21L227.23,288.21z M225.38,282.76h0.77
			c0.29,0,0.51-0.08,0.67-0.24s0.24-0.38,0.24-0.67v-1.13c0-0.29-0.08-0.51-0.24-0.67s-0.38-0.24-0.67-0.24h-0.77V282.76z"/>
		<path class="st0" d="M231.39,278.41h2.32c0.71,0,1.27,0.21,1.69,0.64s0.63,0.99,0.63,1.7v5.12c0,0.71-0.21,1.28-0.63,1.7
			s-0.99,0.64-1.69,0.64h-2.32V278.41z M233.64,286.81c0.29,0,0.51-0.08,0.67-0.24s0.24-0.38,0.24-0.67v-5.18
			c0-0.29-0.08-0.51-0.24-0.67s-0.38-0.24-0.67-0.24h-0.77v7H233.64z"/>
		<path class="st0" d="M239.73,288.04c-0.36-0.21-0.65-0.49-0.85-0.85c-0.2-0.36-0.3-0.78-0.3-1.25v-0.35l1.43-0.15v0.36
			c0,0.36,0.08,0.63,0.25,0.84s0.4,0.31,0.7,0.31c0.29,0,0.52-0.08,0.69-0.25s0.26-0.4,0.26-0.69c0-0.32-0.09-0.62-0.27-0.91
			c-0.18-0.29-0.54-0.69-1.08-1.2c-0.73-0.69-1.22-1.26-1.49-1.72s-0.4-0.96-0.4-1.5c0-0.74,0.2-1.32,0.6-1.76s0.95-0.65,1.65-0.65
			s1.25,0.22,1.65,0.66s0.6,1.03,0.6,1.76v0.25l-1.43,0.15v-0.28c0-0.37-0.07-0.66-0.21-0.85c-0.14-0.2-0.34-0.29-0.6-0.29
			s-0.46,0.08-0.6,0.24s-0.21,0.39-0.21,0.7s0.09,0.6,0.28,0.89s0.55,0.69,1.08,1.22c0.73,0.73,1.23,1.31,1.49,1.76
			c0.27,0.44,0.4,0.93,0.4,1.46c0,0.47-0.1,0.88-0.3,1.25c-0.2,0.36-0.48,0.65-0.85,0.85s-0.78,0.31-1.25,0.31
			S240.1,288.24,239.73,288.04z"/>
		<path class="st0" d="M251.04,288.04c-0.36-0.21-0.65-0.49-0.85-0.85c-0.2-0.36-0.3-0.78-0.3-1.25v-0.35l1.43-0.15v0.36
			c0,0.36,0.08,0.63,0.25,0.84s0.4,0.31,0.7,0.31c0.29,0,0.52-0.08,0.69-0.25s0.26-0.4,0.26-0.69c0-0.32-0.09-0.62-0.27-0.91
			c-0.18-0.29-0.54-0.69-1.08-1.2c-0.73-0.69-1.23-1.26-1.49-1.72c-0.27-0.46-0.4-0.96-0.4-1.5c0-0.74,0.2-1.32,0.6-1.76
			c0.4-0.43,0.95-0.65,1.65-0.65s1.25,0.22,1.65,0.66s0.6,1.03,0.6,1.76v0.25l-1.43,0.15v-0.28c0-0.37-0.07-0.66-0.21-0.85
			s-0.34-0.29-0.6-0.29c-0.26,0-0.46,0.08-0.6,0.24s-0.21,0.39-0.21,0.7s0.09,0.6,0.28,0.89s0.55,0.69,1.08,1.22
			c0.73,0.73,1.22,1.31,1.49,1.76c0.27,0.44,0.4,0.93,0.4,1.46c0,0.47-0.1,0.88-0.3,1.25c-0.2,0.36-0.48,0.65-0.85,0.85
			c-0.36,0.21-0.78,0.31-1.25,0.31C251.82,288.35,251.41,288.24,251.04,288.04z"/>
		<path class="st0" d="M257.93,287.71c-0.43-0.42-0.64-0.98-0.64-1.66v-7.64h1.48v7.64c0,0.28,0.08,0.5,0.23,0.66
			c0.15,0.16,0.35,0.24,0.59,0.24s0.44-0.08,0.59-0.24s0.23-0.38,0.23-0.66v-7.64h1.46v7.64c0,0.68-0.21,1.23-0.63,1.66
			c-0.42,0.42-0.97,0.64-1.65,0.64C258.92,288.35,258.36,288.13,257.93,287.71z"/>
		<path class="st0" d="M265.37,287.7c-0.43-0.43-0.64-0.99-0.64-1.68v-5.43c0-0.69,0.21-1.25,0.64-1.68s0.99-0.64,1.68-0.64
			s1.25,0.21,1.68,0.64c0.43,0.43,0.64,0.99,0.64,1.68v1.15h-1.46v-1.15c0-0.28-0.08-0.5-0.24-0.67s-0.36-0.25-0.62-0.25
			s-0.46,0.08-0.62,0.25s-0.24,0.39-0.24,0.67v5.43c0,0.28,0.08,0.5,0.24,0.67s0.36,0.25,0.62,0.25s0.46-0.08,0.62-0.25
			s0.24-0.39,0.24-0.67v-1.4h1.46v1.4c0,0.69-0.21,1.25-0.64,1.68c-0.43,0.43-0.99,0.64-1.68,0.64
			C266.35,288.35,265.8,288.13,265.37,287.7z"/>
		<path class="st0" d="M272.65,287.7c-0.43-0.43-0.64-0.99-0.64-1.68v-5.43c0-0.69,0.21-1.25,0.64-1.68
			c0.43-0.43,0.99-0.64,1.68-0.64s1.25,0.21,1.68,0.64c0.43,0.43,0.64,0.99,0.64,1.68v1.15h-1.46v-1.15c0-0.28-0.08-0.5-0.24-0.67
			s-0.36-0.25-0.62-0.25s-0.46,0.08-0.62,0.25s-0.24,0.39-0.24,0.67v5.43c0,0.28,0.08,0.5,0.24,0.67s0.36,0.25,0.62,0.25
			s0.46-0.08,0.62-0.25s0.24-0.39,0.24-0.67v-1.4h1.46v1.4c0,0.69-0.21,1.25-0.64,1.68c-0.43,0.43-0.99,0.64-1.68,0.64
			S273.07,288.13,272.65,287.7z"/>
		<path class="st0" d="M279.41,278.41h4.21v1.4h-2.73v2.73h2.17v1.4h-2.17v2.87h2.73v1.4h-4.21V278.41z"/>
		<path class="st0" d="M287.08,288.04c-0.36-0.21-0.65-0.49-0.85-0.85c-0.2-0.36-0.3-0.78-0.3-1.25v-0.35l1.43-0.15v0.36
			c0,0.36,0.08,0.63,0.25,0.84s0.4,0.31,0.7,0.31c0.29,0,0.52-0.08,0.69-0.25s0.26-0.4,0.26-0.69c0-0.32-0.09-0.62-0.27-0.91
			s-0.54-0.69-1.08-1.2c-0.73-0.69-1.22-1.26-1.49-1.72s-0.4-0.96-0.4-1.5c0-0.74,0.2-1.32,0.6-1.76s0.95-0.65,1.65-0.65
			s1.25,0.22,1.65,0.66s0.6,1.03,0.6,1.76v0.25l-1.43,0.15v-0.28c0-0.37-0.07-0.66-0.21-0.85c-0.14-0.2-0.34-0.29-0.6-0.29
			s-0.46,0.08-0.6,0.24s-0.21,0.39-0.21,0.7s0.09,0.6,0.28,0.89s0.55,0.69,1.08,1.22c0.73,0.73,1.23,1.31,1.49,1.76
			c0.27,0.44,0.4,0.93,0.4,1.46c0,0.47-0.1,0.88-0.3,1.25c-0.2,0.36-0.48,0.65-0.85,0.85s-0.78,0.31-1.25,0.31
			S287.44,288.24,287.08,288.04z"/>
		<path class="st0" d="M294.19,288.04c-0.36-0.21-0.65-0.49-0.85-0.85c-0.2-0.36-0.3-0.78-0.3-1.25v-0.35l1.43-0.15v0.36
			c0,0.36,0.08,0.63,0.25,0.84s0.4,0.31,0.7,0.31c0.29,0,0.52-0.08,0.69-0.25s0.26-0.4,0.26-0.69c0-0.32-0.09-0.62-0.27-0.91
			s-0.54-0.69-1.08-1.2c-0.73-0.69-1.23-1.26-1.49-1.72c-0.27-0.46-0.4-0.96-0.4-1.5c0-0.74,0.2-1.32,0.6-1.76
			c0.4-0.43,0.95-0.65,1.65-0.65s1.25,0.22,1.65,0.66s0.6,1.03,0.6,1.76v0.25l-1.43,0.15v-0.28c0-0.37-0.07-0.66-0.21-0.85
			s-0.34-0.29-0.6-0.29s-0.46,0.08-0.6,0.24s-0.21,0.39-0.21,0.7s0.09,0.6,0.28,0.89s0.55,0.69,1.08,1.22
			c0.73,0.73,1.22,1.31,1.49,1.76c0.27,0.44,0.4,0.93,0.4,1.46c0,0.47-0.1,0.88-0.3,1.25c-0.2,0.36-0.48,0.65-0.85,0.85
			c-0.36,0.21-0.78,0.31-1.25,0.31C294.97,288.35,294.56,288.24,294.19,288.04z"/>
		<path class="st0" d="M300.59,286.74h1.48v1.47h-1.48V286.74z"/>
	</g>
	<g>
		<g>
			<path class="st0" d="M11.75,150.16c2.42-1.49,5.35-4.08,6.86-5.91l3.14,3c-1.8,1.75-4.13,3.62-6.41,5.14v9.46
				c0,1.15,0.05,2.81,0.24,3.48h-4.61c0.1-0.65,0.19-2.33,0.19-3.48v-7.03c-2.42,1.22-5.33,2.45-8.11,3.24l-1.8-3.67
				C5.63,153.28,9.06,151.79,11.75,150.16z"/>
			<path class="st0" d="M28.02,154.99c1.06-1.06,2.81-3.24,4.54-5.3c1.51-1.8,3.1-2.06,5.09-0.19c1.7,1.61,3.41,3.38,4.87,4.97
				c1.61,1.73,4.1,4.39,5.95,6.36l-3.22,3.46c-1.56-1.94-3.53-4.44-4.87-6.05c-1.42-1.7-3.48-4.01-4.27-4.82
				c-0.7-0.7-1.22-0.67-1.82,0.12c-0.84,1.1-2.35,3.31-3.26,4.61c-0.58,0.84-1.18,1.75-1.63,2.45l-3.5-3.62
				C26.65,156.33,27.23,155.78,28.02,154.99z M44.8,151.1l-2.57,1.1c-0.77-1.66-1.25-2.62-2.18-3.94l2.5-1.03
				C43.26,148.31,44.27,150.02,44.8,151.1z M48.16,149.61l-2.5,1.2c-0.84-1.66-1.37-2.54-2.3-3.82l2.47-1.13
				C46.58,146.9,47.63,148.55,48.16,149.61z"/>
			<path class="st0" d="M61.89,158.47c4.32-2.5,7.56-6.22,9.17-9.6l2.26,4.1c-1.92,3.41-5.33,6.75-9.34,9.1
				c-2.45,1.44-5.57,2.69-8.59,3.17l-2.47-3.84C56.44,160.92,59.53,159.83,61.89,158.47z M62.7,150.62l-2.98,3.05
				c-1.27-1.39-4.3-4.03-6.02-5.26l2.76-2.95C58.12,146.59,61.26,149.08,62.7,150.62z"/>
			<path class="st0" d="M82.91,147.98c0-0.96-0.1-2.21-0.29-3.12h4.54c-0.1,0.91-0.24,1.97-0.24,3.12v3.29
				c3.24,0.94,7.9,2.64,9.91,3.62l-1.66,4.06c-2.42-1.25-5.71-2.52-8.26-3.43v6.17c0,0.65,0.14,2.54,0.26,3.62h-4.56
				c0.17-1.03,0.29-2.64,0.29-3.62v-13.71H82.91z"/>
			<path class="st0" d="M104.89,147.14c2.26-0.19,5.88-0.48,10.27-0.86c2.4-0.19,5.23-0.36,6.98-0.43l0.02,3.74
				c-1.25,0.02-3.29,0.02-4.61,0.29c-2.59,0.58-4.82,3.38-4.82,6.24c0,3.53,3.31,4.92,7.46,5.16l-1.37,4.03
				c-5.35-0.41-9.94-3.31-9.94-8.42c0-3.29,1.75-5.83,3.05-7.01c-2.06,0.22-6.29,0.7-9.17,1.34l-0.36-3.96
				C103.38,147.23,104.44,147.19,104.89,147.14z M120.64,154.82l-2.14,0.94c-0.65-1.39-1.06-2.18-1.82-3.29l2.09-0.86
				C119.37,152.49,120.21,153.93,120.64,154.82z M123.47,153.57l-2.11,1.01c-0.7-1.37-1.15-2.11-1.94-3.19l2.06-0.94
				C122.1,151.31,122.99,152.71,123.47,153.57z"/>
			<path class="st0" d="M130.41,151.67h15.72c0.5,0,1.7-0.05,2.38-0.17v3.77c-0.65-0.05-1.66-0.07-2.38-0.07h-5.38
				c-0.17,2.4-0.77,4.3-1.58,5.93c-0.82,1.7-2.69,3.65-4.87,4.75l-3.41-2.45c1.61-0.6,3.29-1.97,4.25-3.31
				c0.94-1.39,1.39-3.05,1.54-4.92h-6.26c-0.7,0-1.75,0.05-2.42,0.1v-3.79C128.73,151.6,129.66,151.67,130.41,151.67z
				 M133.53,145.51h9.6c0.89,0,1.9-0.07,2.78-0.19v3.72c-0.89-0.05-1.87-0.1-2.78-0.1h-9.6c-0.84,0-1.99,0.05-2.78,0.1v-3.72
				C131.56,145.43,132.71,145.51,133.53,145.51z"/>
			<path class="st0" d="M156.54,159.23h13.44c0.86,0,2.02-0.07,2.9-0.17v4.44c-0.94-0.1-2.16-0.17-2.9-0.17h-13.44
				c-0.98,0-2.33,0.07-3.29,0.17v-4.44C154.26,159.14,155.56,159.23,156.54,159.23z M158.32,147.57h9.74c1.01,0,2.14-0.07,2.83-0.17
				v4.22c-0.72-0.02-1.97-0.1-2.83-0.1h-9.72c-0.96,0-2.23,0.05-3.1,0.1v-4.22C156.18,147.52,157.48,147.57,158.32,147.57z"/>
			<path class="st0" d="M195.97,149.44c-0.79,1.78-2.06,4.18-3.62,6.34c2.33,2.02,5.21,5.06,6.53,6.7l-3.34,2.9
				c-1.54-2.18-3.58-4.49-5.74-6.58c-2.52,2.62-5.66,5.04-8.81,6.55l-3.02-3.14c3.89-1.42,7.68-4.37,9.82-6.75
				c1.56-1.78,2.86-3.89,3.36-5.42h-7.46c-1.08,0-2.4,0.14-3.07,0.19v-4.13c0.84,0.12,2.38,0.19,3.07,0.19h8.02
				c1.2,0,2.33-0.17,2.88-0.36l2.38,1.75C196.74,148,196.24,148.84,195.97,149.44z"/>
			<path class="st0" d="M213.18,146.85c2.16-0.12,4.44-0.31,6.46-0.67l-0.02,3.36c-2.23,0.29-5.18,0.5-7.73,0.6
				c-0.31,0.62-0.62,1.22-0.94,1.7c0.48-0.14,1.7-0.24,2.38-0.24c1.42,0,2.57,0.58,3.19,1.68c0.96-0.46,1.75-0.77,2.59-1.15
				c1.06-0.46,2.04-0.91,3.07-1.42l1.42,3.36c-0.84,0.24-2.35,0.79-3.26,1.15c-0.91,0.36-2.09,0.82-3.36,1.37
				c0.02,1.32,0.07,2.93,0.1,4.01h-3.46c0.05-0.62,0.1-1.51,0.12-2.42c-1.51,0.89-2.16,1.68-2.16,2.64c0,1.01,0.74,1.42,3,1.42
				c2.14,0,4.87-0.29,6.98-0.74l-0.12,3.74c-1.46,0.22-4.56,0.43-6.94,0.43c-3.94,0-6.77-1.03-6.77-4.22c0-3.14,2.86-5.14,5.52-6.53
				c-0.36-0.38-0.86-0.5-1.32-0.5c-1.22,0-2.71,0.79-3.53,1.61c-0.72,0.74-1.42,1.61-2.23,2.71l-3.1-2.33
				c2.26-2.02,3.96-3.98,5.14-6.19c-0.98,0-2.74-0.05-4.01-0.17v-3.36c1.2,0.19,3.02,0.29,4.32,0.29h0.94
				c0.22-0.89,0.36-1.8,0.41-2.62l3.84,0.31C213.61,145.19,213.45,145.94,213.18,146.85z"/>
			<path class="st0" d="M11.22,185.58c-0.05,0.31-0.12,0.82-0.22,1.49c1.63-0.02,3.14-0.17,4.1-0.34l-0.12,3.46
				c-1.32,0.14-2.54,0.24-4.46,0.24c-0.12,0.86-0.22,1.78-0.34,2.66h0.02c1.37,0,3.22-0.12,4.7-0.29l-0.1,3.43
				c-1.18,0.12-2.54,0.22-3.98,0.22H9.85c-0.05,0.55-0.07,1.03-0.07,1.39c0,1.8,1.15,2.66,3.29,2.66c3.19,0,4.75-1.51,4.75-3.19
				c0-1.63-0.91-3.05-2.38-4.51l4.08-0.86c1.56,2.11,2.26,3.82,2.26,5.86c0,3.65-3.29,6.5-8.83,6.5c-4.08,0-6.77-1.75-6.77-5.83
				c0-0.53,0.05-1.32,0.14-2.23c-1.68-0.17-3.14-0.43-4.34-0.74l0.19-3.5c1.51,0.5,3.05,0.79,4.54,0.94c0.1-0.89,0.22-1.8,0.34-2.69
				c-1.61-0.17-3.22-0.48-4.56-0.86l0.17-3.34c1.34,0.46,3.05,0.74,4.78,0.89c0.07-0.58,0.12-1.13,0.14-1.58
				c0.1-1.27,0.1-1.78,0.05-2.38l4.08,0.22C11.46,184.19,11.34,184.91,11.22,185.58z"/>
			<path class="st0" d="M31.19,191.46c1.61-0.48,5.74-1.82,8.69-1.82c4.03,0,6.62,2.38,6.62,6.22c0,4.18-3.48,7.49-11.74,7.99
				l-1.56-3.58c5.64-0.14,9.41-1.58,9.41-4.49c0-1.66-1.2-2.76-3.1-2.76c-2.69,0-7.2,1.87-9.55,2.88l-1.49-3.77
				C29.2,192.01,30.49,191.68,31.19,191.46z"/>
			<path class="st0" d="M61.62,189.62c1.75-1.01,3.58-1.94,4.61-2.54s1.8-1.06,2.5-1.63l2.02,3.36c-0.84,0.5-1.7,0.98-2.69,1.46
				c-1.42,0.7-4.25,1.99-6.36,3.34c-1.85,1.22-3.19,2.5-3.19,4.08s1.54,2.33,4.61,2.33c2.38,0,5.64-0.41,7.92-0.94l-0.05,4.2
				c-2.18,0.36-4.58,0.6-7.78,0.6c-4.94,0-8.76-1.32-8.76-5.76c0-2.71,1.7-4.7,3.91-6.36c-1.1-2.06-2.23-4.54-3.29-7.03l3.65-1.49
				C59.61,185.65,60.66,187.84,61.62,189.62z"/>
			<path class="st0" d="M92.32,198.76c1.92,1.22,4.44,2.28,6.86,2.9c-0.77,0.7-1.82,2.06-2.33,2.93c-2.62-0.89-5.26-2.42-7.42-4.2
				v4.49h-3.55v-4.49c-2.06,1.9-4.68,3.46-7.34,4.39c-0.53-0.86-1.58-2.21-2.33-2.9c2.47-0.67,4.97-1.8,6.86-3.12h-6.12v-3h8.93
				v-1.32h-3.05v-2.4c-1.58,0.98-3.34,2.04-4.8,2.88l-1.73-2.88c1.46-0.65,3.6-1.75,5.71-2.86l0.82,2.42v-7.15h2.71
				c0.19-0.79,0.36-1.66,0.43-2.38l3.94,0.41c-0.26,0.7-0.53,1.37-0.79,1.97h3.38v2.14c1.03-0.96,2.26-2.26,3-3.31l3,1.8
				c-1.27,1.39-2.78,2.78-3.96,3.7l-2.04-1.34v2.74l1.03-1.2c1.73,0.86,4.32,2.26,5.59,3.24l-2.16,2.62
				c-0.96-0.84-2.83-2.04-4.46-2.98v2.59h-3.07v1.32h9.02v3h-6.13V198.76z M80.17,189.35c-0.67-1.1-2.28-2.66-3.65-3.74l2.4-1.99
				c1.37,0.96,3.05,2.4,3.82,3.5L80.17,189.35z M89.13,187.07h-3.07v1.15h3.07V187.07z M86.05,191.82h3.07v-1.18h-3.07V191.82z"/>
			<path class="st0" d="M109.86,187.05c-0.12,2.52-0.29,7.7-0.29,10.34c0,2.3,1.32,3.02,2.95,3.02c3.72,0,6.24-2.18,7.99-4.87
				l2.64,3.24c-1.49,2.3-5.06,5.62-10.66,5.62c-4.2,0-6.82-1.9-6.82-6.1c0-3.02,0.22-9.46,0.22-11.26c0-1.3-0.12-2.62-0.36-3.7
				l4.68,0.05C110.05,184.53,109.91,185.99,109.86,187.05z"/>
			<path class="st0" d="M137.22,185.58c-0.05,0.31-0.12,0.82-0.22,1.49c1.63-0.02,3.14-0.17,4.1-0.34l-0.12,3.46
				c-1.32,0.14-2.54,0.24-4.46,0.24c-0.12,0.86-0.22,1.78-0.34,2.66h0.02c1.37,0,3.22-0.12,4.7-0.29l-0.1,3.43
				c-1.18,0.12-2.54,0.22-3.98,0.22h-0.98c-0.05,0.55-0.07,1.03-0.07,1.39c0,1.8,1.15,2.66,3.29,2.66c3.19,0,4.75-1.51,4.75-3.19
				c0-1.63-0.91-3.05-2.38-4.51l4.08-0.86c1.56,2.11,2.26,3.82,2.26,5.86c0,3.65-3.29,6.5-8.83,6.5c-4.08,0-6.77-1.75-6.77-5.83
				c0-0.53,0.05-1.32,0.14-2.23c-1.68-0.17-3.14-0.43-4.34-0.74l0.19-3.5c1.51,0.5,3.05,0.79,4.54,0.94c0.1-0.89,0.22-1.8,0.34-2.69
				c-1.61-0.17-3.22-0.48-4.56-0.86l0.17-3.34c1.34,0.46,3.05,0.74,4.78,0.89c0.07-0.58,0.12-1.13,0.14-1.58
				c0.1-1.27,0.1-1.78,0.05-2.38l4.08,0.22C137.46,184.19,137.34,184.91,137.22,185.58z"/>
			<path class="st0" d="M164.1,192.3c-2.57,0-4.97,0.82-6.07,1.15c-0.67,0.19-1.75,0.62-2.5,0.91l-1.08-4.13
				c0.89-0.07,2.04-0.26,2.86-0.43c1.8-0.41,4.46-1.06,7.32-1.06c4.01,0,6.74,2.3,6.74,6.24c0,5.11-4.82,8.45-11.76,9.36l-2.06-3.65
				c6.02-0.65,9.7-2.4,9.7-5.86C167.25,193.5,166.24,192.3,164.1,192.3z M169.29,183.97l-0.58,3.58c-2.88-0.19-8.3-0.67-11.09-1.15
				l0.55-3.48C161.05,183.52,166.65,183.97,169.29,183.97z"/>
			<path class="st0" d="M186.04,200.46c0-1.42,1.03-2.4,2.45-2.4s2.45,0.98,2.45,2.4s-1.03,2.45-2.45,2.45
				C187.05,202.91,186.04,201.88,186.04,200.46z M186.28,188.66l-0.14-3.98h4.7l-0.14,3.98l-0.72,7.58H187L186.28,188.66z"/>
		</g>
	</g>
</g>
</svg>
