<?xml version="1.0" encoding="utf-8"?>
<!-- Generator: Adobe Illustrator 25.0.0, SVG Export Plug-In . SVG Version: 6.00 Build 0)  -->
<svg version="1.1" id="レイヤー_1" xmlns="http://www.w3.org/2000/svg" xmlns:xlink="http://www.w3.org/1999/xlink" x="0px"
	 y="0px" viewBox="0 0 290.05 28.45" style="enable-background:new 0 0 290.05 28.45;" xml:space="preserve">
<style type="text/css">
	.st0{fill:#FFFFFF;}
</style>
<g>
	<g>
		<path class="st0" d="M222.51,13.45c1.82-1.05,3.72-2.02,4.8-2.65c1.07-0.62,1.87-1.1,2.6-1.7l2.1,3.5
			c-0.87,0.52-1.77,1.02-2.8,1.52c-1.47,0.72-4.42,2.08-6.62,3.47c-1.92,1.27-3.32,2.6-3.32,4.25c0,1.65,1.6,2.42,4.8,2.42
			c2.47,0,5.87-0.42,8.25-0.97l-0.05,4.37c-2.27,0.38-4.77,0.62-8.1,0.62c-5.15,0-9.12-1.38-9.12-6c0-2.82,1.77-4.9,4.07-6.62
			c-1.15-2.15-2.32-4.72-3.42-7.32l3.8-1.55C220.41,9.33,221.51,11.6,222.51,13.45z"/>
		<path class="st0" d="M247.71,10.13c-0.3,1.3-1.17,7.12-1.17,9.45c0,0.07,0,0.47,0.02,0.57c0.3-0.72,0.62-1.2,0.95-1.95l1.82,1.47
			c-0.75,2.25-1.5,4.77-1.8,6.22c-0.08,0.35-0.15,0.92-0.15,1.17c0,0.27,0,0.72,0.03,1.12l-3.42,0.25c-0.52-1.7-1.02-4.62-1.02-8.02
			c0-3.82,0.7-8.52,0.97-10.37c0.1-0.75,0.25-1.9,0.28-2.82l4.17,0.35C248.16,8.13,247.81,9.68,247.71,10.13z M260.36,8.93
			c-0.02,0.47-0.05,1.3-0.08,2.35c1.28-0.15,2.5-0.33,3.62-0.58v3.77c-1.12,0.15-2.35,0.3-3.65,0.37c0.05,2.3,0.17,4.07,0.25,5.57
			c2.12,0.88,3.67,2.17,4.8,3.22l-2.05,3.17c-0.92-0.88-1.82-1.62-2.67-2.27c-0.33,2.35-1.88,3.8-5.15,3.8
			c-3.52,0-5.85-1.5-5.85-4.32c0-2.8,2.3-4.6,5.8-4.6c0.42,0,0.85,0.03,1.25,0.05c-0.08-1.32-0.15-2.85-0.17-4.42
			c-0.48,0.03-0.95,0.03-1.4,0.03c-1.5,0-3-0.05-4.47-0.15l-0.03-3.6c1.45,0.15,2.95,0.22,4.47,0.22c0.47,0,0.92,0,1.4-0.03
			c-0.03-1.17-0.03-2.1-0.05-2.55c0-0.38-0.1-1.2-0.2-1.72h4.32C260.43,7.73,260.38,8.38,260.36,8.93z M255.08,24.77
			c1.2,0,1.67-0.65,1.67-2.02v-0.17c-0.55-0.15-1.1-0.22-1.67-0.22c-1.17,0-1.95,0.45-1.95,1.25
			C253.13,24.47,254.01,24.77,255.08,24.77z"/>
		<path class="st0" d="M285.81,13.6c0-1.38-1.17-2-2.82-2c-1.42,0-2.47,0.65-3.57,1.8l-2.45-2.25c1.55-1.9,3.9-3.15,6.55-3.15
			c3.67,0,6.55,1.62,6.55,5.2c0,3.6-5.17,3.85-4.95,7.15h-3.9C280.81,16.55,285.81,15.8,285.81,13.6z M280.61,24.75
			c0-1.47,1.07-2.5,2.55-2.5s2.55,1.03,2.55,2.5s-1.08,2.55-2.55,2.55C281.66,27.3,280.61,26.22,280.61,24.75z"/>
	</g>
	<g>
		<path class="st0" d="M12.98,26.73H1.41l3.67-7.87l-1.49-4.01h3.36l4.62-9.93H0L2.25,0h34.87l-2.33,4.89H23.18L12.98,26.73z"/>
		<path class="st0" d="M70.84,26.73H59.27L53.2,14.86l-5.54,11.88H36.05l3.67-7.87l-1.45-4.01h3.32l4.62-9.93L44.41,0h27.3
			l9.36,4.93l-4.66,9.93l-9.55,4.05L70.84,26.73z M69.39,10.73l1.07-2.94l-1.03-2.86H57.82l-2.67,5.77L69.39,10.73z"/>
		<path class="st0" d="M94.97,26.73H83.36l3.67-7.87l-1.45-4.01h3.32l4.62-9.93L91.73,0h15.7L94.97,26.73z"/>
		<path class="st0" d="M143.09,26.73h-13.02l-4.62-11.88l-5.54,11.88H108.3l3.67-7.87l-1.45-4.01h3.32l4.62-9.93L116.66,0h15.7
			l4.7,14.86L143.97,0h7.52l1.8,4.89L143.09,26.73z"/>
		<path class="st0" d="M175.55,26.73h-11.57l3.67-7.87l-1.49-4.01h3.36l4.62-9.93h-11.57L164.82,0h34.87l-2.33,4.89h-11.61
			L175.55,26.73z"/>
	</g>
</g>
</svg>
