<?xml version="1.0" encoding="utf-8"?>
<!-- Generator: Adobe Illustrator 25.0.0, SVG Export Plug-In . SVG Version: 6.00 Build 0)  -->
<svg version="1.1" id="レイヤー_1" xmlns="http://www.w3.org/2000/svg" xmlns:xlink="http://www.w3.org/1999/xlink" x="0px"
	 y="0px" viewBox="0 0 184.04 51.68" style="enable-background:new 0 0 184.04 51.68;" xml:space="preserve">
<style type="text/css">
	.st0{fill:#0273D9;}
	.st1{fill:#040000;}
</style>
<g>
	<g>
		<g>
			<path class="st0" d="M0,0.42h4.45v29.4H0V0.42z"/>
		</g>
		<g>
			<path class="st0" d="M11.42,0.42h4.91l5.67,19.74V0.42h4.37v29.4h-4.7L15.79,11v18.82h-4.37V0.42z"/>
		</g>
		<g>
			<path class="st0" d="M33.35,0.42h12.43v4.2H37.8v8.61h6.3v4.2h-6.3v12.39h-4.45V0.42z"/>
		</g>
		<g>
			<path class="st0" d="M52.92,28.29c-1.32-1.3-1.97-3.02-1.97-5.14V7.1c0-2.13,0.66-3.84,1.97-5.15C54.23,0.65,55.96,0,58.08,0
				c2.13,0,3.85,0.65,5.17,1.95c1.32,1.3,1.97,3.02,1.97,5.15v16.04c0,2.13-0.66,3.84-1.97,5.14c-1.32,1.3-3.04,1.95-5.17,1.95
				C55.96,30.24,54.23,29.59,52.92,28.29z M60.06,25.28c0.48-0.5,0.71-1.22,0.71-2.14V7.1c0-0.92-0.24-1.64-0.71-2.14
				S58.92,4.2,58.08,4.2c-0.84,0-1.5,0.25-1.97,0.76c-0.48,0.5-0.71,1.22-0.71,2.14v16.04c0,0.92,0.24,1.64,0.71,2.14
				c0.48,0.5,1.13,0.76,1.97,0.76C58.92,26.04,59.58,25.79,60.06,25.28z"/>
		</g>
		<g>
			<path class="st0" d="M92.06,0.42v29.4h-4.45V9.66l-4.16,20.16h-3.11L76.19,9.66v20.16h-4.37V0.42h6.3l3.86,18.77l3.7-18.77H92.06
				z"/>
		</g>
		<g>
			<path class="st0" d="M107.81,23.31h-4.79l-0.97,6.51H97.6l4.87-29.4h5.96l4.87,29.4h-4.54L107.81,23.31z M107.22,19.03
				l-1.81-12.31l-1.81,12.31H107.22z"/>
		</g>
		<g>
			<path class="st0" d="M117.43,0.42h14.2v4.2h-4.87v25.2h-4.45V4.62h-4.87V0.42z"/>
		</g>
		<g>
			<path class="st0" d="M137.17,0.42h4.45v29.4h-4.45V0.42z"/>
		</g>
		<g>
			<path class="st0" d="M150.19,28.29c-1.32-1.3-1.97-3.02-1.97-5.14V7.1c0-2.13,0.66-3.84,1.97-5.15c1.32-1.3,3.04-1.95,5.17-1.95
				c2.13,0,3.85,0.65,5.17,1.95s1.97,3.02,1.97,5.15v16.04c0,2.13-0.66,3.84-1.97,5.14c-1.32,1.3-3.04,1.95-5.17,1.95
				C153.23,30.24,151.5,29.59,150.19,28.29z M157.33,25.28c0.48-0.5,0.71-1.22,0.71-2.14V7.1c0-0.92-0.24-1.64-0.71-2.14
				c-0.48-0.5-1.13-0.76-1.97-0.76c-0.84,0-1.5,0.25-1.97,0.76c-0.48,0.5-0.71,1.22-0.71,2.14v16.04c0,0.92,0.24,1.64,0.71,2.14
				c0.48,0.5,1.13,0.76,1.97,0.76C156.19,26.04,156.85,25.79,157.33,25.28z"/>
		</g>
		<g>
			<path class="st0" d="M169.09,0.42H174l5.67,19.74V0.42h4.37v29.4h-4.7L173.45,11v18.82h-4.37V0.42z"/>
		</g>
	</g>
	<g>
		<g>
			<path class="st1" d="M60.83,43.61c-0.01,0.24-0.02,0.56-0.04,0.92c0.7-0.08,1.42-0.22,1.97-0.38l0.02,0.98
				c-0.58,0.13-1.32,0.25-2.01,0.33c-0.01,0.4-0.02,0.8-0.02,1.16c0,0.11,0,0.23,0,0.35c0.73-0.21,1.47-0.32,2.08-0.32
				c1.49,0,2.61,0.8,2.61,2.08c0,1.19-0.69,2.02-2.16,2.37c-0.45,0.1-0.9,0.13-1.27,0.15l-0.36-1.02c0.4,0.01,0.83,0.01,1.2-0.07
				c0.84-0.16,1.57-0.6,1.57-1.44c0-0.77-0.69-1.2-1.6-1.2c-0.7,0-1.39,0.12-2.05,0.33c0.01,0.83,0.04,1.67,0.04,2.07
				c0,1.06-0.39,1.37-0.98,1.37c-0.87,0-2.2-0.8-2.2-1.76c0-0.85,1.03-1.74,2.21-2.25c0-0.21,0-0.42,0-0.62c0-0.35,0-0.73,0.01-1.11
				c-0.25,0.02-0.47,0.03-0.66,0.03c-0.61,0-0.99-0.02-1.32-0.05l-0.03-0.96c0.57,0.07,0.96,0.08,1.33,0.08
				c0.21,0,0.44-0.01,0.69-0.03c0-0.45,0.01-0.81,0.01-0.99c0-0.21-0.03-0.61-0.06-0.79h1.1C60.88,43.03,60.85,43.37,60.83,43.61z
				 M59.56,50.21c0.2,0,0.34-0.13,0.34-0.46c0-0.32-0.02-0.9-0.03-1.55c-0.73,0.36-1.25,0.87-1.25,1.27S59.22,50.21,59.56,50.21z
				 M66.26,45.38l-0.49,0.8c-0.48-0.44-1.68-1.15-2.31-1.48l0.44-0.76C64.64,44.31,65.76,44.99,66.26,45.38z"/>
			<path class="st1" d="M72,47.34c-0.03,0.19-0.05,0.38-0.09,0.57c0.5,0.49,1.65,1.79,1.94,2.12l-0.64,0.8
				c-0.33-0.5-1-1.36-1.53-1.97c-0.33,1.03-0.92,2.03-1.98,2.8c-0.13-0.2-0.47-0.57-0.66-0.71c1.41-1,1.87-2.36,2.02-3.61h-1.9
				v-0.88h1.96v-0.3v-1.49h-0.61c-0.21,0.55-0.47,1.05-0.74,1.45c-0.17-0.16-0.54-0.41-0.76-0.54c0.57-0.73,0.96-1.9,1.19-3.07
				l0.89,0.17c-0.08,0.38-0.17,0.76-0.27,1.12h2.73v0.87h-1.49v1.5c0,0.09,0,0.19,0,0.29h1.77v0.88H72z M77.77,43.36v7.92h-0.94
				v-0.64h-1.82v0.75h-0.9v-8.03H77.77z M76.83,49.76v-5.53h-1.82v5.53H76.83z"/>
			<path class="st1" d="M83.55,47.47c0.93-0.76,1.99-1.11,3.12-1.11c1.63,0,2.65,0.99,2.65,2.18c0,1.8-1.52,3.1-5.43,2.77l-0.3-1.03
				c3.09,0.39,4.65-0.44,4.65-1.76c0-0.74-0.69-1.27-1.65-1.27c-1.23,0-2.29,0.47-2.95,1.27c-0.17,0.19-0.26,0.36-0.34,0.53
				l-0.92-0.22c0.2-0.94,0.44-2.98,0.51-4.11l1.06,0.14C83.81,45.49,83.64,46.86,83.55,47.47z M87.96,43.73l-0.23,0.97
				c-0.98-0.13-3.18-0.59-3.95-0.79l0.25-0.95C84.94,43.24,87.08,43.64,87.96,43.73z"/>
			<path class="st1" d="M100.15,43.91c-0.01,0.43-0.01,0.86-0.02,1.26c0.34-0.03,0.67-0.05,0.95-0.07c0.26-0.01,0.6-0.04,0.86-0.06
				v0.98c-0.17-0.01-0.61,0-0.87,0.01c-0.26,0-0.59,0.02-0.96,0.04c-0.02,0.76-0.06,1.61-0.15,2.06c-0.1,0.48-0.33,0.61-0.81,0.61
				c-0.36,0-1.1-0.1-1.4-0.15l0.02-0.87c0.33,0.07,0.75,0.13,0.96,0.13c0.23,0,0.33-0.04,0.35-0.26c0.05-0.3,0.08-0.88,0.1-1.45
				c-0.97,0.08-2.06,0.18-2.99,0.28c-0.01,0.98-0.02,1.97,0,2.38c0.03,1.03,0.07,1.35,1.7,1.35c1.04,0,2.29-0.12,2.98-0.25
				l-0.03,1.07c-0.67,0.08-1.9,0.17-2.89,0.17c-2.43,0-2.69-0.54-2.73-2.19c-0.01-0.43-0.01-1.46-0.01-2.42
				c-0.37,0.04-0.68,0.07-0.9,0.1c-0.31,0.04-0.83,0.11-1.09,0.15l-0.11-1.02c0.3,0,0.71-0.02,1.13-0.06
				c0.22-0.02,0.55-0.05,0.97-0.09c0-0.58,0-1.05,0-1.22c0-0.35-0.02-0.64-0.07-0.96h1.11c-0.03,0.27-0.05,0.55-0.05,0.91
				c0,0.28,0,0.7-0.01,1.18c0.92-0.09,2.01-0.19,3.01-0.28c0-0.43,0-0.89,0-1.3c0-0.23-0.04-0.64-0.07-0.82h1.07
				C100.17,43.28,100.15,43.67,100.15,43.91z"/>
			<path class="st1" d="M104.99,47.01c0.21-0.68,0.37-1.79,0.43-2.57l0.67,0.08c-0.03,0.79-0.19,1.96-0.4,2.71L104.99,47.01z
				 M107.59,45.62c-0.1-0.35-0.31-0.94-0.51-1.4v7.45h-0.85v-9.15h0.85v1.63l0.58-0.23c0.2,0.45,0.46,1.04,0.56,1.41L107.59,45.62z
				 M114.25,45.68v0.69h-6.48v-0.69h2.74V45.1h-2.2v-0.65h2.2v-0.52h-2.44v-0.69h2.44V42.5h0.92v0.74h2.53v0.69h-2.53v0.52h2.27
				v0.65h-2.27v0.58H114.25z M113.52,50.71c0,0.42-0.09,0.66-0.39,0.79c-0.31,0.13-0.78,0.14-1.47,0.14
				c-0.04-0.23-0.16-0.58-0.27-0.8c0.46,0.03,0.94,0.02,1.07,0.02c0.14-0.01,0.18-0.05,0.18-0.17v-0.54h-3.31v1.51h-0.86v-4.81h5.05
				V50.71z M109.34,47.56v0.62h3.31v-0.62H109.34z M112.64,49.48v-0.62h-3.31v0.62H112.64z"/>
			<path class="st1" d="M119.82,45.11h1.75v0.79h-0.93l0.43,0.11c-0.17,0.42-0.35,0.86-0.51,1.18h0.89v0.8h-1.63v0.94h1.5v0.79h-1.5
				v1.93h-0.87v-1.93h-1.57v-0.79h1.57v-0.94h-1.66v-0.8h0.87c-0.05-0.34-0.2-0.81-0.38-1.18l0.41-0.11h-1.07v-0.79h1.83v-0.87
				h-1.47v-0.78h1.47v-0.94h0.87v0.94h1.38v0.78h-1.38V45.11z M119.84,47.1c0.14-0.34,0.32-0.84,0.42-1.2h-1.73
				c0.18,0.39,0.35,0.88,0.39,1.2l-0.33,0.09h1.59L119.84,47.1z M126.04,46.49c-0.2,1.19-0.58,2.31-1.13,3.26
				c0.43,0.5,0.93,0.91,1.49,1.19c-0.2,0.17-0.48,0.51-0.62,0.74c-0.51-0.3-0.97-0.7-1.38-1.18c-0.35,0.46-0.76,0.86-1.22,1.19
				c-0.12-0.17-0.32-0.39-0.51-0.54v0.53h-0.84v-8.74h3.98v1.89c0,0.43-0.09,0.67-0.44,0.8c-0.33,0.13-0.84,0.13-1.59,0.13
				c-0.04-0.24-0.16-0.58-0.28-0.8c0.57,0.02,1.1,0.02,1.25,0.01c0.15-0.01,0.19-0.04,0.19-0.15v-1.06h-2.27v2.56h2.65l0.15-0.04
				L126.04,46.49z M122.67,50.97c0.46-0.32,0.85-0.73,1.19-1.2c-0.51-0.79-0.9-1.71-1.19-2.7V50.97z M123.45,47.08
				c0.22,0.68,0.52,1.33,0.89,1.92c0.32-0.6,0.55-1.25,0.71-1.92H123.45z"/>
		</g>
	</g>
</g>
</svg>
